<svg width="1216" height="867" viewBox="0 0 1216 867" fill="none" xmlns="http://www.w3.org/2000/svg">
<path d="M960.491 35L964.717 9.54545H979.98L979.533 12.2798H967.352L965.911 20.8807H976.947L976.5 23.6151H965.463L963.574 35H960.491ZM986.904 35.4474C985.694 35.4474 984.634 35.2196 983.722 34.7638C982.811 34.2998 982.135 33.6328 981.696 32.7628C981.257 31.8845 981.137 30.8239 981.336 29.581C981.526 28.4872 981.895 27.6006 982.442 26.9212C982.989 26.2334 983.652 25.6948 984.431 25.3054C985.218 24.9077 986.063 24.6135 986.966 24.4229C987.878 24.2241 988.785 24.0708 989.688 23.9631C990.865 23.8139 991.822 23.6979 992.559 23.6151C993.297 23.5322 993.852 23.3955 994.225 23.2049C994.597 23.0143 994.825 22.687 994.908 22.223V22.1236C995.107 20.9055 994.945 19.9568 994.423 19.2773C993.901 18.5896 992.969 18.2457 991.627 18.2457C990.235 18.2457 989.071 18.5523 988.134 19.1655C987.198 19.7786 986.506 20.4332 986.059 21.1293L983.474 20.1349C984.153 18.9749 984.965 18.0717 985.91 17.4254C986.854 16.7708 987.844 16.3151 988.88 16.0582C989.916 15.7931 990.914 15.6605 991.876 15.6605C992.489 15.6605 993.181 15.7351 993.951 15.8842C994.722 16.0251 995.443 16.3192 996.114 16.7667C996.793 17.2141 997.303 17.8894 997.643 18.7926C997.991 19.6958 998.04 20.9055 997.792 22.4219L995.704 35H992.77L993.218 32.4148H993.069C992.804 32.8291 992.398 33.2724 991.851 33.7447C991.312 34.217 990.628 34.6188 989.8 34.9503C988.98 35.2817 988.014 35.4474 986.904 35.4474ZM987.749 32.8125C988.909 32.8125 989.924 32.5846 990.794 32.1289C991.673 31.6732 992.377 31.0849 992.907 30.364C993.446 29.6431 993.781 28.8849 993.914 28.0895L994.361 25.4048C994.212 25.554 993.918 25.6907 993.479 25.815C993.04 25.931 992.543 26.0346 991.987 26.1257C991.441 26.2086 990.906 26.2831 990.384 26.3494C989.87 26.4074 989.456 26.4571 989.141 26.4986C988.362 26.598 987.621 26.7596 986.916 26.9833C986.22 27.1987 985.632 27.526 985.151 27.9652C984.679 28.3961 984.385 28.9844 984.269 29.7301C984.095 30.7493 984.339 31.5199 985.002 32.0419C985.665 32.5556 986.581 32.8125 987.749 32.8125ZM1019.87 15.9091L1009.62 35H1006.64L1002.76 15.9091H1005.82L1008.56 31.1222H1008.75L1016.56 15.9091H1019.87ZM1028.45 35.3977C1026.7 35.3977 1025.23 34.9793 1024.04 34.1424C1022.86 33.3055 1022.02 32.133 1021.53 30.625C1021.05 29.117 1020.97 27.3603 1021.29 25.3551C1021.61 23.3996 1022.23 21.6969 1023.17 20.2468C1024.11 18.7885 1025.29 17.6616 1026.69 16.8661C1028.1 16.0624 1029.65 15.6605 1031.34 15.6605C1033.09 15.6605 1034.56 16.0831 1035.74 16.9283C1036.92 17.7652 1037.76 18.9418 1038.25 20.4581C1038.74 21.9661 1038.82 23.7311 1038.5 25.7528C1038.18 27.6918 1037.55 29.3862 1036.59 30.8363C1035.65 32.2781 1034.48 33.4008 1033.08 34.2045C1031.68 35 1030.14 35.3977 1028.45 35.3977ZM1028.5 32.7628C1029.84 32.7628 1031.01 32.4189 1031.99 31.7312C1032.99 31.0434 1033.79 30.1361 1034.41 29.0092C1035.03 27.8823 1035.45 26.6643 1035.66 25.3551C1035.86 24.1122 1035.85 22.9563 1035.64 21.8874C1035.42 20.8103 1034.96 19.9444 1034.26 19.2898C1033.55 18.6269 1032.56 18.2955 1031.29 18.2955C1029.94 18.2955 1028.77 18.6435 1027.77 19.3395C1026.77 20.0355 1025.97 20.9511 1025.36 22.0863C1024.74 23.2215 1024.33 24.4437 1024.13 25.7528C1023.93 26.9957 1023.93 28.1516 1024.14 29.2205C1024.36 30.2811 1024.82 31.1387 1025.52 31.7933C1026.23 32.4396 1027.23 32.7628 1028.5 32.7628ZM1042.16 35L1045.34 15.9091H1048.17L1047.67 18.7926H1047.87C1048.37 17.848 1049.13 17.0816 1050.15 16.4933C1051.17 15.9049 1052.25 15.6108 1053.39 15.6108C1053.62 15.6108 1053.89 15.6149 1054.2 15.6232C1054.51 15.6232 1054.76 15.6357 1054.93 15.6605L1054.44 18.6435C1054.34 18.6186 1054.11 18.5813 1053.77 18.5316C1053.42 18.4736 1053.04 18.4446 1052.65 18.4446C1051.72 18.4446 1050.86 18.6393 1050.07 19.0288C1049.29 19.4099 1048.63 19.9402 1048.1 20.6197C1047.57 21.2908 1047.23 22.0573 1047.08 22.919L1045.09 35H1042.16ZM1055.95 35L1059.13 15.9091H1062.06L1058.88 35H1055.95ZM1061.49 12.6776C1060.92 12.6776 1060.43 12.4828 1060.01 12.0934C1059.61 11.704 1059.4 11.2358 1059.4 10.6889C1059.4 10.142 1059.61 9.67389 1060.01 9.28445C1060.43 8.895 1060.92 8.70028 1061.49 8.70028C1062.06 8.70028 1062.55 8.895 1062.96 9.28445C1063.37 9.67389 1063.58 10.142 1063.58 10.6889C1063.58 11.2358 1063.37 11.704 1062.96 12.0934C1062.55 12.4828 1062.06 12.6776 1061.49 12.6776ZM1076.44 15.9091L1076.04 18.3949H1066.15L1066.54 15.9091H1076.44ZM1070.17 11.3352H1073.11L1070.07 29.5312C1069.94 30.3598 1069.96 30.9813 1070.14 31.3956C1070.32 31.8016 1070.59 32.075 1070.96 32.2159C1071.33 32.3485 1071.73 32.4148 1072.16 32.4148C1072.48 32.4148 1072.75 32.3982 1072.96 32.3651C1073.16 32.3236 1073.33 32.2905 1073.45 32.2656L1073.65 34.9006C1073.43 34.9751 1073.13 35.0497 1072.75 35.1243C1072.37 35.2071 1071.91 35.2486 1071.37 35.2486C1070.54 35.2486 1069.76 35.0704 1069.03 34.7141C1068.3 34.3578 1067.74 33.8151 1067.35 33.0859C1066.96 32.3568 1066.86 31.437 1067.04 30.3267L1070.17 11.3352ZM1086.12 35.3977C1084.29 35.3977 1082.77 34.9917 1081.58 34.1797C1080.39 33.3594 1079.55 32.2159 1079.08 30.7493C1078.61 29.2744 1078.54 27.5592 1078.86 25.6037C1079.18 23.6482 1079.82 21.9247 1080.79 20.4332C1081.75 18.9335 1082.94 17.7652 1084.38 16.9283C1085.81 16.0831 1087.38 15.6605 1089.1 15.6605C1090.09 15.6605 1091.05 15.8262 1091.97 16.1577C1092.89 16.4891 1093.69 17.0277 1094.36 17.7734C1095.03 18.5109 1095.5 19.4886 1095.76 20.7067C1096.03 21.9247 1096.01 23.4245 1095.71 25.206L1095.51 26.4489H1080.8L1081.2 23.9134H1092.93C1093.12 22.8362 1093.07 21.875 1092.78 21.0298C1092.5 20.1847 1092 19.5176 1091.3 19.0288C1090.6 18.5399 1089.72 18.2955 1088.65 18.2955C1087.55 18.2955 1086.52 18.5937 1085.57 19.1903C1084.62 19.7786 1083.82 20.5244 1083.18 21.4276C1082.55 22.3224 1082.15 23.2339 1081.99 24.1619L1081.64 26.3494C1081.39 27.9321 1081.43 29.1915 1081.75 30.1278C1082.09 31.0642 1082.66 31.7395 1083.48 32.1538C1084.3 32.5598 1085.33 32.7628 1086.56 32.7628C1087.35 32.7628 1088.08 32.6551 1088.74 32.4396C1089.4 32.2159 1090 31.8845 1090.52 31.4453C1091.04 30.9979 1091.48 30.4427 1091.83 29.7798L1094.52 30.5753C1094.06 31.5365 1093.42 32.3816 1092.59 33.1108C1091.77 33.8317 1090.81 34.3951 1089.71 34.8011C1088.62 35.1989 1087.42 35.3977 1086.12 35.3977ZM1110.24 35L1114.47 9.54545H1123.37C1125.14 9.54545 1126.55 9.85204 1127.61 10.4652C1128.66 11.0701 1129.38 11.8862 1129.77 12.9137C1130.16 13.9329 1130.25 15.0639 1130.03 16.3068C1129.85 17.4006 1129.5 18.3037 1129 19.0163C1128.5 19.7289 1127.91 20.2924 1127.21 20.7067C1126.52 21.121 1125.8 21.4276 1125.06 21.6264L1125.01 21.875C1125.77 21.9247 1126.5 22.1982 1127.21 22.6953C1127.91 23.1925 1128.46 23.9051 1128.84 24.8331C1129.22 25.7611 1129.3 26.8963 1129.09 28.2386C1128.87 29.5147 1128.39 30.6623 1127.63 31.6815C1126.88 32.7006 1125.83 33.5085 1124.47 34.1051C1123.12 34.7017 1121.45 35 1119.44 35H1110.24ZM1113.77 32.2656H1119.89C1121.9 32.2656 1123.4 31.8762 1124.38 31.0973C1125.36 30.3101 1125.95 29.3572 1126.15 28.2386C1126.29 27.3769 1126.19 26.5814 1125.87 25.8523C1125.55 25.1148 1125.03 24.5265 1124.29 24.0874C1123.56 23.6399 1122.64 23.4162 1121.53 23.4162H1115.26L1113.77 32.2656ZM1115.71 20.7315H1121.43C1122.36 20.7315 1123.23 20.5492 1124.04 20.1847C1124.85 19.8201 1125.53 19.3063 1126.08 18.6435C1126.63 17.9806 1126.96 17.2017 1127.1 16.3068C1127.3 15.1882 1127.07 14.2395 1126.43 13.4606C1125.78 12.6734 1124.61 12.2798 1122.92 12.2798H1117.1L1115.71 20.7315ZM1141.19 35.3977C1139.43 35.3977 1137.96 34.9793 1136.78 34.1424C1135.59 33.3055 1134.76 32.133 1134.27 30.625C1133.79 29.117 1133.71 27.3603 1134.03 25.3551C1134.35 23.3996 1134.97 21.6969 1135.91 20.2468C1136.85 18.7885 1138.02 17.6616 1139.42 16.8661C1140.83 16.0624 1142.38 15.6605 1144.07 15.6605C1145.83 15.6605 1147.3 16.0831 1148.47 16.9283C1149.66 17.7652 1150.49 18.9418 1150.98 20.4581C1151.47 21.9661 1151.56 23.7311 1151.23 25.7528C1150.92 27.6918 1150.28 29.3862 1149.33 30.8363C1148.39 32.2781 1147.21 33.4008 1145.81 34.2045C1144.42 35 1142.88 35.3977 1141.19 35.3977ZM1141.24 32.7628C1142.58 32.7628 1143.75 32.4189 1144.73 31.7312C1145.73 31.0434 1146.53 30.1361 1147.14 29.0092C1147.76 27.8823 1148.18 26.6643 1148.4 25.3551C1148.6 24.1122 1148.59 22.9563 1148.37 21.8874C1148.16 20.8103 1147.7 19.9444 1146.99 19.2898C1146.29 18.6269 1145.3 18.2955 1144.02 18.2955C1142.68 18.2955 1141.51 18.6435 1140.51 19.3395C1139.51 20.0355 1138.71 20.9511 1138.09 22.0863C1137.48 23.2215 1137.07 24.4437 1136.86 25.7528C1136.67 26.9957 1136.67 28.1516 1136.88 29.2205C1137.09 30.2811 1137.55 31.1387 1138.26 31.7933C1138.97 32.4396 1139.96 32.7628 1141.24 32.7628ZM1162.77 35.3977C1161.02 35.3977 1159.55 34.9793 1158.36 34.1424C1157.18 33.3055 1156.34 32.133 1155.85 30.625C1155.37 29.117 1155.29 27.3603 1155.61 25.3551C1155.93 23.3996 1156.55 21.6969 1157.49 20.2468C1158.44 18.7885 1159.61 17.6616 1161.01 16.8661C1162.42 16.0624 1163.97 15.6605 1165.66 15.6605C1167.41 15.6605 1168.88 16.0831 1170.06 16.9283C1171.24 17.7652 1172.08 18.9418 1172.57 20.4581C1173.06 21.9661 1173.14 23.7311 1172.82 25.7528C1172.5 27.6918 1171.87 29.3862 1170.91 30.8363C1169.97 32.2781 1168.8 33.4008 1167.4 34.2045C1166 35 1164.46 35.3977 1162.77 35.3977ZM1162.82 32.7628C1164.17 32.7628 1165.33 32.4189 1166.32 31.7312C1167.31 31.0434 1168.11 30.1361 1168.73 29.0092C1169.35 27.8823 1169.77 26.6643 1169.98 25.3551C1170.18 24.1122 1170.17 22.9563 1169.96 21.8874C1169.74 20.8103 1169.28 19.9444 1168.58 19.2898C1167.87 18.6269 1166.88 18.2955 1165.61 18.2955C1164.26 18.2955 1163.09 18.6435 1162.09 19.3395C1161.1 20.0355 1160.29 20.9511 1159.68 22.0863C1159.07 23.2215 1158.66 24.4437 1158.45 25.7528C1158.25 26.9957 1158.25 28.1516 1158.46 29.2205C1158.68 30.2811 1159.14 31.1387 1159.84 31.7933C1160.55 32.4396 1161.55 32.7628 1162.82 32.7628ZM1180.35 28.0398L1180.9 24.4105H1181.5L1191.29 15.9091H1194.92L1184.53 24.9077H1184.28L1180.35 28.0398ZM1176.48 35L1180.7 9.54545H1183.64L1179.41 35H1176.48ZM1188.61 35L1182.74 25.554L1185.13 23.5156L1192.34 35H1188.61ZM1212.22 20.1847L1209.44 20.9304C1209.34 20.483 1209.17 20.0521 1208.92 19.6378C1208.68 19.2152 1208.3 18.8713 1207.8 18.6062C1207.3 18.3327 1206.62 18.196 1205.76 18.196C1204.59 18.196 1203.58 18.4653 1202.72 19.0039C1201.85 19.5342 1201.36 20.2095 1201.24 21.0298C1201.11 21.7507 1201.28 22.3266 1201.73 22.7575C1202.19 23.1883 1202.95 23.5405 1204.02 23.8139L1206.76 24.5099C1208.4 24.9325 1209.56 25.5664 1210.26 26.4116C1210.96 27.2485 1211.2 28.3381 1210.98 29.6804C1210.8 30.7741 1210.32 31.7519 1209.55 32.6136C1208.78 33.4754 1207.79 34.1548 1206.59 34.652C1205.39 35.1491 1204.05 35.3977 1202.58 35.3977C1200.62 35.3977 1199.07 34.9751 1197.93 34.13C1196.8 33.2765 1196.19 32.0419 1196.12 30.4261L1199.05 29.7301C1199.12 30.7493 1199.49 31.5199 1200.14 32.0419C1200.81 32.5556 1201.73 32.8125 1202.93 32.8125C1204.29 32.8125 1205.43 32.5225 1206.34 31.9425C1207.26 31.3542 1207.77 30.6499 1207.9 29.8295C1208.02 29.1584 1207.89 28.5991 1207.5 28.1516C1207.12 27.7042 1206.46 27.3686 1205.51 27.1449L1202.48 26.3991C1200.79 25.9766 1199.6 25.3303 1198.92 24.4602C1198.25 23.5902 1198.03 22.4964 1198.25 21.179C1198.44 20.1018 1198.9 19.1489 1199.65 18.3203C1200.4 17.4917 1201.34 16.8413 1202.48 16.369C1203.62 15.8967 1204.87 15.6605 1206.21 15.6605C1208.1 15.6605 1209.51 16.0748 1210.45 16.9034C1211.38 17.7237 1211.98 18.8175 1212.22 20.1847Z" fill="white"/>
<line x1="90" y1="64.5" x2="1214" y2="64.5" stroke="#CCCCCC" stroke-width="3" stroke-dasharray="6 6"/>
<line x1="90" y1="239.5" x2="1214" y2="239.5" stroke="#CCCCCC" stroke-width="3" stroke-dasharray="6 6"/>
<line x1="90" y1="414.5" x2="1214" y2="414.5" stroke="#CCCCCC" stroke-width="3" stroke-dasharray="6 6"/>
<line x1="90" y1="589.5" x2="1214" y2="589.5" stroke="#CCCCCC" stroke-width="3" stroke-dasharray="6 6"/>
<line x1="90" y1="764.5" x2="1214" y2="764.5" stroke="#CCCCCC" stroke-width="3"/>
<path d="M228 317.5H442C446.694 317.5 450.5 321.306 450.5 326V764.5H219.5V326C219.5 321.306 223.306 317.5 228 317.5Z" fill="#2C73FD" stroke="#D9D9D9" stroke-width="3"/>
<path d="M613 144.5H827C831.694 144.5 835.5 148.306 835.5 153V764.5H604.5V153C604.5 148.306 608.306 144.5 613 144.5Z" fill="#FF9900" stroke="#D9D9D9" stroke-width="3"/>
<path d="M992 239.5H1206C1210.69 239.5 1214.5 243.306 1214.5 248V763.5H983.5V248C983.5 243.306 987.306 239.5 992 239.5Z" fill="#E11D9F" stroke="#D9D9D9" stroke-width="3"/>
<path d="M1007.85 714.818H1011.12L1008.99 727.647C1008.8 728.813 1008.39 729.816 1007.78 730.656C1007.17 731.491 1006.39 732.133 1005.45 732.583C1004.52 733.027 1003.46 733.249 1002.27 733.249C1001.2 733.249 1000.27 733.059 999.468 732.68C998.669 732.296 998.08 731.728 997.701 730.976C997.323 730.218 997.225 729.283 997.408 728.17H1000.64C1000.57 728.674 1000.6 729.103 1000.75 729.458C1000.89 729.813 1001.13 730.082 1001.46 730.266C1001.79 730.449 1002.2 730.541 1002.68 730.541C1003.22 730.541 1003.7 730.425 1004.11 730.195C1004.53 729.964 1004.88 729.626 1005.16 729.183C1005.44 728.739 1005.63 728.197 1005.74 727.558L1007.85 714.818ZM1018.01 733.266C1016.67 733.266 1015.55 732.97 1014.66 732.379C1013.77 731.787 1013.14 730.955 1012.78 729.884C1012.42 728.813 1012.36 727.57 1012.59 726.155C1012.82 724.758 1013.28 723.536 1013.97 722.489C1014.67 721.441 1015.55 720.63 1016.61 720.056C1017.67 719.476 1018.87 719.186 1020.19 719.186C1021.53 719.186 1022.65 719.485 1023.53 720.083C1024.42 720.675 1025.05 721.506 1025.41 722.577C1025.77 723.649 1025.84 724.897 1025.61 726.324C1025.39 727.715 1024.92 728.931 1024.22 729.973C1023.52 731.014 1022.64 731.825 1021.58 732.405C1020.52 732.979 1019.33 733.266 1018.01 733.266ZM1018.28 730.692C1019.02 730.692 1019.68 730.491 1020.24 730.088C1020.81 729.68 1021.27 729.132 1021.63 728.446C1022 727.753 1022.26 726.984 1022.4 726.137C1022.53 725.321 1022.53 724.581 1022.41 723.918C1022.28 723.249 1022.02 722.719 1021.61 722.329C1021.21 721.932 1020.65 721.734 1019.93 721.734C1019.18 721.734 1018.52 721.941 1017.95 722.355C1017.38 722.764 1016.92 723.314 1016.56 724.007C1016.2 724.693 1015.95 725.46 1015.81 726.306C1015.67 727.123 1015.67 727.863 1015.79 728.526C1015.92 729.188 1016.18 729.715 1016.59 730.106C1017 730.496 1017.56 730.692 1018.28 730.692ZM1032.28 725.01L1030.97 733H1027.75L1030.77 714.818H1033.92L1032.78 721.681H1032.95C1033.38 720.905 1033.97 720.296 1034.72 719.852C1035.47 719.408 1036.37 719.186 1037.42 719.186C1038.36 719.186 1039.15 719.384 1039.79 719.781C1040.42 720.177 1040.87 720.757 1041.14 721.521C1041.4 722.284 1041.45 723.217 1041.27 724.317L1039.81 733H1036.59L1037.96 724.815C1038.1 723.897 1037.98 723.184 1037.59 722.675C1037.21 722.16 1036.6 721.903 1035.76 721.903C1035.19 721.903 1034.66 722.027 1034.17 722.276C1033.69 722.518 1033.28 722.87 1032.95 723.332C1032.62 723.794 1032.4 724.353 1032.28 725.01ZM1048.12 725.01L1046.8 733H1043.58L1045.85 719.364H1048.93L1048.54 721.681H1048.71C1049.14 720.917 1049.73 720.311 1050.5 719.861C1051.27 719.411 1052.17 719.186 1053.19 719.186C1054.12 719.186 1054.9 719.387 1055.54 719.79C1056.17 720.186 1056.62 720.769 1056.89 721.539C1057.15 722.302 1057.2 723.228 1057.01 724.317L1055.56 733H1052.34L1053.7 724.815C1053.85 723.909 1053.74 723.199 1053.35 722.684C1052.98 722.163 1052.37 721.903 1051.53 721.903C1050.96 721.903 1050.44 722.027 1049.97 722.276C1049.5 722.518 1049.1 722.87 1048.77 723.332C1048.45 723.794 1048.23 724.353 1048.12 725.01ZM1061.47 733.195C1060.93 733.195 1060.48 733.006 1060.12 732.627C1059.77 732.248 1059.6 731.787 1059.62 731.242C1059.65 730.71 1059.86 730.257 1060.27 729.884C1060.68 729.511 1061.15 729.325 1061.68 729.325C1062.21 729.325 1062.66 729.514 1063.02 729.893C1063.4 730.272 1063.57 730.721 1063.53 731.242C1063.51 731.609 1063.39 731.941 1063.19 732.237C1063 732.532 1062.75 732.766 1062.45 732.938C1062.15 733.109 1061.82 733.195 1061.47 733.195ZM1084.74 720.953H1081.47C1081.47 720.408 1081.38 719.926 1081.21 719.506C1081.03 719.08 1080.78 718.719 1080.46 718.423C1080.14 718.127 1079.76 717.905 1079.33 717.757C1078.89 717.603 1078.4 717.526 1077.87 717.526C1076.85 717.526 1075.9 717.783 1075.03 718.298C1074.15 718.813 1073.41 719.562 1072.8 720.544C1072.19 721.521 1071.77 722.708 1071.53 724.104C1071.31 725.466 1071.33 726.605 1071.59 727.522C1071.86 728.44 1072.32 729.132 1072.98 729.6C1073.63 730.061 1074.43 730.292 1075.37 730.292C1075.95 730.292 1076.5 730.221 1077.03 730.079C1077.55 729.931 1078.04 729.715 1078.48 729.431C1078.93 729.141 1079.33 728.789 1079.66 728.375C1080.01 727.96 1080.27 727.49 1080.46 726.963H1083.77C1083.5 727.827 1083.1 728.641 1082.57 729.404C1082.05 730.162 1081.41 730.831 1080.67 731.411C1079.93 731.985 1079.11 732.435 1078.19 732.76C1077.27 733.086 1076.28 733.249 1075.22 733.249C1073.6 733.249 1072.2 732.87 1071.04 732.112C1069.89 731.349 1069.06 730.257 1068.56 728.836C1068.05 727.41 1067.96 725.702 1068.29 723.714C1068.62 721.778 1069.24 720.13 1070.17 718.769C1071.11 717.408 1072.25 716.369 1073.59 715.653C1074.94 714.931 1076.39 714.57 1077.95 714.57C1078.98 714.57 1079.91 714.712 1080.75 714.996C1081.6 715.28 1082.33 715.697 1082.93 716.248C1083.53 716.792 1083.99 717.461 1084.31 718.254C1084.63 719.041 1084.77 719.941 1084.74 720.953ZM1088.3 733.195C1087.76 733.195 1087.31 733.006 1086.95 732.627C1086.6 732.248 1086.43 731.787 1086.45 731.242C1086.48 730.71 1086.69 730.257 1087.1 729.884C1087.51 729.511 1087.98 729.325 1088.51 729.325C1089.04 729.325 1089.49 729.514 1089.85 729.893C1090.23 730.272 1090.4 730.721 1090.36 731.242C1090.34 731.609 1090.22 731.941 1090.02 732.237C1089.83 732.532 1089.58 732.766 1089.28 732.938C1088.98 733.109 1088.65 733.195 1088.3 733.195ZM1097.05 714.818H1101.08L1104.3 727.993H1104.51L1112.09 714.818H1116.12L1113.1 733H1109.94L1112.01 720.509H1111.85L1104.75 732.947H1102.4L1099.45 720.482H1099.28L1097.19 733H1094.03L1097.05 714.818ZM1120.93 733.275C1120.07 733.275 1119.31 733.121 1118.68 732.814C1118.04 732.5 1117.57 732.038 1117.26 731.429C1116.97 730.819 1116.89 730.067 1117.04 729.174C1117.17 728.404 1117.42 727.768 1117.79 727.265C1118.16 726.762 1118.62 726.359 1119.16 726.058C1119.7 725.75 1120.29 725.519 1120.93 725.365C1121.58 725.211 1122.23 725.099 1122.9 725.028C1123.72 724.945 1124.38 724.868 1124.88 724.797C1125.39 724.726 1125.77 724.619 1126.03 724.477C1126.28 724.329 1126.44 724.104 1126.49 723.803V723.749C1126.59 723.08 1126.49 722.563 1126.17 722.196C1125.85 721.829 1125.32 721.645 1124.57 721.645C1123.79 721.645 1123.13 721.817 1122.6 722.16C1122.07 722.503 1121.68 722.909 1121.44 723.376L1118.52 722.95C1118.89 722.122 1119.39 721.429 1120.03 720.873C1120.67 720.311 1121.41 719.89 1122.24 719.612C1123.09 719.328 1123.98 719.186 1124.93 719.186C1125.59 719.186 1126.22 719.263 1126.84 719.417C1127.47 719.571 1128.02 719.825 1128.5 720.18C1128.99 720.53 1129.34 721.006 1129.57 721.61C1129.8 722.213 1129.84 722.968 1129.68 723.874L1128.17 733H1125.08L1125.4 731.127H1125.29C1125.04 731.506 1124.7 731.861 1124.3 732.192C1123.89 732.518 1123.4 732.781 1122.84 732.982C1122.28 733.178 1121.64 733.275 1120.93 733.275ZM1122.15 730.914C1122.79 730.914 1123.37 730.786 1123.89 730.532C1124.4 730.272 1124.83 729.928 1125.16 729.502C1125.49 729.076 1125.7 728.611 1125.78 728.108L1126.04 726.501C1125.93 726.584 1125.74 726.661 1125.49 726.732C1125.25 726.803 1124.97 726.865 1124.66 726.919C1124.36 726.972 1124.06 727.019 1123.76 727.061C1123.47 727.102 1123.21 727.138 1123 727.167C1122.51 727.232 1122.06 727.339 1121.65 727.487C1121.25 727.635 1120.91 727.842 1120.65 728.108C1120.39 728.369 1120.22 728.706 1120.16 729.12C1120.06 729.706 1120.2 730.153 1120.58 730.461C1120.95 730.763 1121.47 730.914 1122.15 730.914ZM1136.8 719.364L1138.72 724.397L1142.35 719.364H1145.75L1140.5 726.182L1143.55 733H1140.16L1138.09 728.091L1134.42 733H1131.01L1136.3 726.182L1133.39 719.364H1136.8ZM1149.27 733L1147.69 719.364H1150.97L1151.77 728.952H1151.89L1155.94 719.364H1159.18L1160.03 728.898H1160.17L1164.13 719.364H1167.41L1161.28 733H1157.93L1156.9 723.785H1156.71L1152.63 733H1149.27ZM1173.49 733.266C1172.13 733.266 1171 732.982 1170.1 732.414C1169.21 731.84 1168.58 731.029 1168.22 729.982C1167.87 728.928 1167.81 727.688 1168.04 726.262C1168.27 724.859 1168.74 723.628 1169.45 722.569C1170.16 721.503 1171.05 720.675 1172.12 720.083C1173.19 719.485 1174.37 719.186 1175.67 719.186C1176.51 719.186 1177.28 719.322 1177.99 719.594C1178.69 719.861 1179.29 720.275 1179.77 720.837C1180.26 721.4 1180.59 722.116 1180.77 722.986C1180.96 723.85 1180.95 724.88 1180.75 726.075L1180.6 727.061H1169.41L1169.76 724.895H1177.85C1177.96 724.279 1177.92 723.732 1177.75 723.252C1177.57 722.767 1177.27 722.385 1176.86 722.107C1176.44 721.829 1175.93 721.69 1175.3 721.69C1174.67 721.69 1174.08 721.852 1173.53 722.178C1172.98 722.498 1172.53 722.912 1172.15 723.421C1171.78 723.93 1171.54 724.465 1171.44 725.028L1171.08 727.105C1170.95 727.957 1170.98 728.653 1171.17 729.191C1171.36 729.73 1171.69 730.127 1172.16 730.381C1172.64 730.636 1173.23 730.763 1173.96 730.763C1174.43 730.763 1174.87 730.698 1175.27 730.567C1175.67 730.437 1176.03 730.242 1176.34 729.982C1176.66 729.715 1176.93 729.39 1177.14 729.005L1180.08 729.342C1179.76 730.135 1179.28 730.828 1178.65 731.42C1178.02 732.006 1177.27 732.461 1176.4 732.787C1175.53 733.107 1174.56 733.266 1173.49 733.266ZM1189.07 714.818L1186.05 733H1182.84L1185.85 714.818H1189.07ZM1196.09 714.818L1193.07 733H1189.85L1192.87 714.818H1196.09Z" fill="white" fill-opacity="0.5"/>
<path d="M650.849 723.818H654.116L651.985 736.647C651.796 737.813 651.393 738.816 650.778 739.656C650.168 740.491 649.393 741.133 648.452 741.583C647.517 742.027 646.457 742.249 645.273 742.249C644.202 742.249 643.267 742.059 642.468 741.68C641.669 741.296 641.08 740.728 640.701 739.976C640.323 739.218 640.225 738.283 640.408 737.17H643.64C643.569 737.674 643.604 738.103 643.746 738.458C643.894 738.813 644.131 739.082 644.457 739.266C644.788 739.449 645.196 739.541 645.682 739.541C646.22 739.541 646.697 739.425 647.111 739.195C647.531 738.964 647.881 738.626 648.159 738.183C648.437 737.739 648.632 737.197 648.745 736.558L650.849 723.818ZM658.917 742.275C658.053 742.275 657.301 742.121 656.662 741.814C656.023 741.5 655.552 741.038 655.251 740.429C654.955 739.819 654.881 739.067 655.029 738.174C655.159 737.404 655.407 736.768 655.774 736.265C656.147 735.762 656.603 735.359 657.142 735.058C657.686 734.75 658.278 734.519 658.917 734.365C659.562 734.211 660.219 734.099 660.888 734.028C661.705 733.945 662.365 733.868 662.868 733.797C663.377 733.726 663.758 733.619 664.013 733.477C664.267 733.329 664.421 733.104 664.475 732.803V732.749C664.581 732.08 664.475 731.563 664.155 731.196C663.835 730.829 663.303 730.645 662.557 730.645C661.776 730.645 661.119 730.817 660.586 731.16C660.053 731.503 659.666 731.909 659.423 732.376L656.511 731.95C656.878 731.122 657.381 730.429 658.02 729.873C658.66 729.311 659.396 728.89 660.231 728.612C661.071 728.328 661.968 728.186 662.921 728.186C663.572 728.186 664.208 728.263 664.83 728.417C665.457 728.571 666.01 728.825 666.49 729.18C666.975 729.53 667.33 730.006 667.555 730.61C667.786 731.213 667.825 731.968 667.671 732.874L666.153 742H663.063L663.383 740.127H663.276C663.022 740.506 662.69 740.861 662.282 741.192C661.873 741.518 661.388 741.781 660.826 741.982C660.264 742.178 659.627 742.275 658.917 742.275ZM660.133 739.914C660.778 739.914 661.358 739.786 661.873 739.532C662.388 739.272 662.811 738.928 663.143 738.502C663.474 738.076 663.682 737.611 663.764 737.108L664.031 735.501C663.912 735.584 663.729 735.661 663.48 735.732C663.232 735.803 662.954 735.865 662.646 735.919C662.344 735.972 662.045 736.019 661.749 736.061C661.453 736.102 661.199 736.138 660.986 736.167C660.494 736.232 660.045 736.339 659.636 736.487C659.234 736.635 658.899 736.842 658.633 737.108C658.373 737.369 658.21 737.706 658.145 738.12C658.05 738.706 658.189 739.153 658.562 739.461C658.935 739.763 659.459 739.914 660.133 739.914ZM669.893 742L672.166 728.364H675.246L674.856 730.681H675.024C675.439 729.9 676.01 729.29 676.738 728.852C677.466 728.408 678.285 728.186 679.197 728.186C680.114 728.186 680.854 728.411 681.416 728.861C681.985 729.305 682.334 729.911 682.464 730.681H682.606C683.032 729.917 683.642 729.311 684.435 728.861C685.234 728.411 686.131 728.186 687.125 728.186C688.368 728.186 689.321 728.583 689.983 729.376C690.646 730.169 690.851 731.326 690.596 732.847L689.069 742H685.855L687.311 733.344C687.441 732.498 687.311 731.879 686.921 731.489C686.536 731.092 686.018 730.894 685.367 730.894C684.592 730.894 683.947 731.134 683.432 731.613C682.923 732.092 682.609 732.72 682.491 733.495L681.061 742H677.91L679.383 733.211C679.49 732.507 679.366 731.944 679.01 731.524C678.661 731.104 678.146 730.894 677.466 730.894C677.004 730.894 676.563 731.012 676.143 731.249C675.723 731.486 675.365 731.817 675.069 732.243C674.779 732.663 674.589 733.152 674.501 733.708L673.116 742H669.893ZM698.822 742.266C697.455 742.266 696.324 741.982 695.431 741.414C694.537 740.84 693.91 740.029 693.549 738.982C693.193 737.928 693.134 736.688 693.371 735.262C693.602 733.859 694.072 732.628 694.783 731.569C695.493 730.503 696.381 729.675 697.446 729.083C698.517 728.485 699.701 728.186 700.997 728.186C701.838 728.186 702.61 728.322 703.314 728.594C704.018 728.861 704.613 729.275 705.099 729.837C705.584 730.4 705.918 731.116 706.102 731.986C706.285 732.85 706.276 733.88 706.075 735.075L705.924 736.061H694.738L695.084 733.895H703.181C703.288 733.279 703.252 732.732 703.074 732.252C702.897 731.767 702.601 731.385 702.187 731.107C701.772 730.829 701.255 730.69 700.633 730.69C700 730.69 699.408 730.852 698.858 731.178C698.313 731.498 697.854 731.912 697.481 732.421C697.109 732.93 696.872 733.465 696.771 734.028L696.407 736.105C696.277 736.957 696.307 737.653 696.496 738.191C696.685 738.73 697.017 739.127 697.49 739.381C697.964 739.636 698.562 739.763 699.284 739.763C699.757 739.763 700.195 739.698 700.598 739.567C701 739.437 701.358 739.242 701.672 738.982C701.991 738.715 702.258 738.39 702.471 738.005L705.409 738.342C705.084 739.135 704.607 739.828 703.98 740.42C703.353 741.006 702.601 741.461 701.725 741.787C700.855 742.107 699.887 742.266 698.822 742.266ZM720.602 731.968L717.646 732.288C717.616 731.986 717.525 731.705 717.371 731.444C717.217 731.184 716.986 730.977 716.678 730.823C716.376 730.663 715.986 730.583 715.506 730.583C714.808 730.583 714.195 730.74 713.669 731.054C713.142 731.367 712.843 731.77 712.772 732.261C712.707 732.628 712.796 732.927 713.038 733.158C713.281 733.388 713.731 733.584 714.388 733.744L716.643 734.241C717.886 734.519 718.779 734.969 719.324 735.59C719.874 736.212 720.067 737.025 719.901 738.032C719.759 738.872 719.392 739.612 718.8 740.251C718.208 740.884 717.451 741.379 716.527 741.734C715.61 742.089 714.592 742.266 713.473 742.266C711.775 742.266 710.467 741.914 709.549 741.21C708.638 740.5 708.185 739.523 708.191 738.28L711.351 737.978C711.387 738.594 711.603 739.058 712 739.372C712.396 739.68 712.947 739.837 713.651 739.843C714.444 739.849 715.113 739.683 715.657 739.346C716.208 739.002 716.518 738.585 716.589 738.094C716.649 737.727 716.557 737.428 716.314 737.197C716.077 736.966 715.654 736.783 715.045 736.647L712.807 736.158C711.541 735.88 710.638 735.41 710.1 734.747C709.567 734.078 709.387 733.235 709.558 732.217C709.7 731.388 710.046 730.675 710.597 730.077C711.153 729.473 711.866 729.009 712.736 728.683C713.606 728.352 714.58 728.186 715.657 728.186C717.279 728.186 718.501 728.526 719.324 729.207C720.146 729.888 720.573 730.808 720.602 731.968ZM746.771 729.953H743.504C743.504 729.408 743.415 728.926 743.237 728.506C743.06 728.08 742.811 727.719 742.492 727.423C742.172 727.127 741.793 726.905 741.355 726.757C740.917 726.603 740.432 726.526 739.899 726.526C738.881 726.526 737.934 726.783 737.059 727.298C736.183 727.813 735.44 728.562 734.83 729.544C734.221 730.521 733.797 731.708 733.561 733.104C733.342 734.466 733.362 735.605 733.623 736.522C733.889 737.44 734.351 738.132 735.008 738.6C735.665 739.061 736.464 739.292 737.405 739.292C737.979 739.292 738.529 739.221 739.056 739.079C739.583 738.931 740.068 738.715 740.512 738.431C740.962 738.141 741.355 737.789 741.693 737.375C742.036 736.96 742.302 736.49 742.492 735.963H745.803C745.531 736.827 745.131 737.641 744.605 738.404C744.078 739.162 743.445 739.831 742.705 740.411C741.965 740.985 741.136 741.435 740.219 741.76C739.302 742.086 738.313 742.249 737.254 742.249C735.626 742.249 734.232 741.87 733.072 741.112C731.918 740.349 731.09 739.257 730.587 737.836C730.083 736.41 729.995 734.702 730.32 732.714C730.646 730.778 731.273 729.13 732.202 727.769C733.137 726.408 734.277 725.369 735.62 724.653C736.97 723.931 738.423 723.57 739.979 723.57C741.009 723.57 741.944 723.712 742.785 723.996C743.631 724.28 744.356 724.697 744.96 725.248C745.563 725.792 746.022 726.461 746.336 727.254C746.655 728.041 746.8 728.941 746.771 729.953ZM754.398 723.818L751.379 742H748.165L751.184 723.818H754.398ZM761.185 742.266C759.818 742.266 758.688 741.982 757.794 741.414C756.9 740.84 756.273 740.029 755.912 738.982C755.557 737.928 755.498 736.688 755.734 735.262C755.965 733.859 756.436 732.628 757.146 731.569C757.856 730.503 758.744 729.675 759.809 729.083C760.88 728.485 762.064 728.186 763.36 728.186C764.201 728.186 764.973 728.322 765.677 728.594C766.382 728.861 766.977 729.275 767.462 729.837C767.947 730.4 768.282 731.116 768.465 731.986C768.649 732.85 768.64 733.88 768.438 735.075L768.288 736.061H757.101L757.448 733.895H765.544C765.651 733.279 765.615 732.732 765.438 732.252C765.26 731.767 764.964 731.385 764.55 731.107C764.136 730.829 763.618 730.69 762.996 730.69C762.363 730.69 761.771 730.852 761.221 731.178C760.676 731.498 760.218 731.912 759.845 732.421C759.472 732.93 759.235 733.465 759.134 734.028L758.771 736.105C758.64 736.957 758.67 737.653 758.859 738.191C759.049 738.73 759.38 739.127 759.854 739.381C760.327 739.636 760.925 739.763 761.647 739.763C762.12 739.763 762.558 739.698 762.961 739.567C763.363 739.437 763.721 739.242 764.035 738.982C764.355 738.715 764.621 738.39 764.834 738.005L767.773 738.342C767.447 739.135 766.971 739.828 766.343 740.42C765.716 741.006 764.964 741.461 764.088 741.787C763.218 742.107 762.251 742.266 761.185 742.266ZM774.416 742.275C773.552 742.275 772.8 742.121 772.161 741.814C771.522 741.5 771.051 741.038 770.75 740.429C770.454 739.819 770.38 739.067 770.528 738.174C770.658 737.404 770.906 736.768 771.273 736.265C771.646 735.762 772.102 735.359 772.641 735.058C773.185 734.75 773.777 734.519 774.416 734.365C775.061 734.211 775.718 734.099 776.387 734.028C777.204 733.945 777.864 733.868 778.367 733.797C778.876 733.726 779.257 733.619 779.512 733.477C779.766 733.329 779.92 733.104 779.974 732.803V732.749C780.08 732.08 779.974 731.563 779.654 731.196C779.334 730.829 778.802 730.645 778.056 730.645C777.275 730.645 776.618 730.817 776.085 731.16C775.552 731.503 775.165 731.909 774.922 732.376L772.01 731.95C772.377 731.122 772.88 730.429 773.519 729.873C774.159 729.311 774.896 728.89 775.73 728.612C776.57 728.328 777.467 728.186 778.42 728.186C779.071 728.186 779.707 728.263 780.329 728.417C780.956 728.571 781.509 728.825 781.989 729.18C782.474 729.53 782.829 730.006 783.054 730.61C783.285 731.213 783.324 731.968 783.17 732.874L781.652 742H778.562L778.882 740.127H778.775C778.521 740.506 778.189 740.861 777.781 741.192C777.372 741.518 776.887 741.781 776.325 741.982C775.763 742.178 775.126 742.275 774.416 742.275ZM775.632 739.914C776.277 739.914 776.858 739.786 777.372 739.532C777.887 739.272 778.311 738.928 778.642 738.502C778.973 738.076 779.181 737.611 779.263 737.108L779.53 735.501C779.411 735.584 779.228 735.661 778.979 735.732C778.731 735.803 778.453 735.865 778.145 735.919C777.843 735.972 777.544 736.019 777.248 736.061C776.952 736.102 776.698 736.138 776.485 736.167C775.993 736.232 775.544 736.339 775.135 736.487C774.733 736.635 774.398 736.842 774.132 737.108C773.872 737.369 773.709 737.706 773.644 738.12C773.549 738.706 773.688 739.153 774.061 739.461C774.434 739.763 774.958 739.914 775.632 739.914ZM785.383 742L787.656 728.364H790.772L790.39 730.636H790.532C790.905 729.849 791.432 729.243 792.112 728.816C792.799 728.384 793.533 728.168 794.314 728.168C794.498 728.168 794.696 728.177 794.909 728.195C795.122 728.207 795.306 728.228 795.459 728.257L794.962 731.213C794.826 731.166 794.613 731.125 794.323 731.089C794.039 731.048 793.758 731.027 793.48 731.027C792.894 731.027 792.349 731.154 791.846 731.409C791.349 731.657 790.929 732.004 790.585 732.447C790.242 732.891 790.02 733.403 789.92 733.983L788.597 742H785.383Z" fill="white" fill-opacity="0.5"/>
<path d="M254.849 716.818H258.116L255.985 729.647C255.796 730.813 255.393 731.816 254.778 732.656C254.168 733.491 253.393 734.133 252.452 734.583C251.517 735.027 250.457 735.249 249.273 735.249C248.202 735.249 247.267 735.059 246.468 734.68C245.669 734.296 245.08 733.728 244.701 732.976C244.323 732.218 244.225 731.283 244.408 730.17H247.64C247.569 730.674 247.604 731.103 247.746 731.458C247.894 731.813 248.131 732.082 248.457 732.266C248.788 732.449 249.196 732.541 249.682 732.541C250.22 732.541 250.697 732.425 251.111 732.195C251.531 731.964 251.881 731.626 252.159 731.183C252.437 730.739 252.632 730.197 252.745 729.558L254.849 716.818ZM262.917 735.275C262.053 735.275 261.301 735.121 260.662 734.814C260.023 734.5 259.552 734.038 259.251 733.429C258.955 732.819 258.881 732.067 259.029 731.174C259.159 730.404 259.407 729.768 259.774 729.265C260.147 728.762 260.603 728.359 261.142 728.058C261.686 727.75 262.278 727.519 262.917 727.365C263.562 727.211 264.219 727.099 264.888 727.028C265.705 726.945 266.365 726.868 266.868 726.797C267.377 726.726 267.758 726.619 268.013 726.477C268.267 726.329 268.421 726.104 268.475 725.803V725.749C268.581 725.08 268.475 724.563 268.155 724.196C267.835 723.829 267.303 723.645 266.557 723.645C265.776 723.645 265.119 723.817 264.586 724.16C264.053 724.503 263.666 724.909 263.423 725.376L260.511 724.95C260.878 724.122 261.381 723.429 262.02 722.873C262.66 722.311 263.396 721.89 264.231 721.612C265.071 721.328 265.968 721.186 266.921 721.186C267.572 721.186 268.208 721.263 268.83 721.417C269.457 721.571 270.01 721.825 270.49 722.18C270.975 722.53 271.33 723.006 271.555 723.61C271.786 724.213 271.825 724.968 271.671 725.874L270.153 735H267.063L267.383 733.127H267.276C267.022 733.506 266.69 733.861 266.282 734.192C265.873 734.518 265.388 734.781 264.826 734.982C264.264 735.178 263.627 735.275 262.917 735.275ZM264.133 732.914C264.778 732.914 265.358 732.786 265.873 732.532C266.388 732.272 266.811 731.928 267.143 731.502C267.474 731.076 267.682 730.611 267.764 730.108L268.031 728.501C267.912 728.584 267.729 728.661 267.48 728.732C267.232 728.803 266.954 728.865 266.646 728.919C266.344 728.972 266.045 729.019 265.749 729.061C265.453 729.102 265.199 729.138 264.986 729.167C264.494 729.232 264.045 729.339 263.636 729.487C263.234 729.635 262.899 729.842 262.633 730.108C262.373 730.369 262.21 730.706 262.145 731.12C262.05 731.706 262.189 732.153 262.562 732.461C262.935 732.763 263.459 732.914 264.133 732.914ZM273.893 735L276.166 721.364H279.246L278.856 723.681H279.024C279.439 722.9 280.01 722.29 280.738 721.852C281.466 721.408 282.285 721.186 283.197 721.186C284.114 721.186 284.854 721.411 285.416 721.861C285.985 722.305 286.334 722.911 286.464 723.681H286.606C287.032 722.917 287.642 722.311 288.435 721.861C289.234 721.411 290.131 721.186 291.125 721.186C292.368 721.186 293.321 721.583 293.983 722.376C294.646 723.169 294.851 724.326 294.596 725.847L293.069 735H289.855L291.311 726.344C291.441 725.498 291.311 724.879 290.921 724.489C290.536 724.092 290.018 723.894 289.367 723.894C288.592 723.894 287.947 724.134 287.432 724.613C286.923 725.092 286.609 725.72 286.491 726.495L285.061 735H281.91L283.383 726.211C283.49 725.507 283.366 724.944 283.01 724.524C282.661 724.104 282.146 723.894 281.466 723.894C281.004 723.894 280.563 724.012 280.143 724.249C279.723 724.486 279.365 724.817 279.069 725.243C278.779 725.663 278.589 726.152 278.501 726.708L277.116 735H273.893ZM302.822 735.266C301.455 735.266 300.324 734.982 299.431 734.414C298.537 733.84 297.91 733.029 297.549 731.982C297.193 730.928 297.134 729.688 297.371 728.262C297.602 726.859 298.072 725.628 298.783 724.569C299.493 723.503 300.381 722.675 301.446 722.083C302.517 721.485 303.701 721.186 304.997 721.186C305.838 721.186 306.61 721.322 307.314 721.594C308.018 721.861 308.613 722.275 309.099 722.837C309.584 723.4 309.918 724.116 310.102 724.986C310.285 725.85 310.276 726.88 310.075 728.075L309.924 729.061H298.738L299.084 726.895H307.181C307.288 726.279 307.252 725.732 307.074 725.252C306.897 724.767 306.601 724.385 306.187 724.107C305.772 723.829 305.255 723.69 304.633 723.69C304 723.69 303.408 723.852 302.858 724.178C302.313 724.498 301.854 724.912 301.481 725.421C301.109 725.93 300.872 726.465 300.771 727.028L300.407 729.105C300.277 729.957 300.307 730.653 300.496 731.191C300.685 731.73 301.017 732.127 301.49 732.381C301.964 732.636 302.562 732.763 303.284 732.763C303.757 732.763 304.195 732.698 304.598 732.567C305 732.437 305.358 732.242 305.672 731.982C305.991 731.715 306.258 731.39 306.471 731.005L309.409 731.342C309.084 732.135 308.607 732.828 307.98 733.42C307.353 734.006 306.601 734.461 305.725 734.787C304.855 735.107 303.887 735.266 302.822 735.266ZM324.602 724.968L321.646 725.288C321.616 724.986 321.525 724.705 321.371 724.444C321.217 724.184 320.986 723.977 320.678 723.823C320.376 723.663 319.986 723.583 319.506 723.583C318.808 723.583 318.195 723.74 317.669 724.054C317.142 724.367 316.843 724.77 316.772 725.261C316.707 725.628 316.796 725.927 317.038 726.158C317.281 726.388 317.731 726.584 318.388 726.744L320.643 727.241C321.886 727.519 322.779 727.969 323.324 728.59C323.874 729.212 324.067 730.025 323.901 731.032C323.759 731.872 323.392 732.612 322.8 733.251C322.208 733.884 321.451 734.379 320.527 734.734C319.61 735.089 318.592 735.266 317.473 735.266C315.775 735.266 314.467 734.914 313.549 734.21C312.638 733.5 312.185 732.523 312.191 731.28L315.351 730.978C315.387 731.594 315.603 732.058 316 732.372C316.396 732.68 316.947 732.837 317.651 732.843C318.444 732.849 319.113 732.683 319.657 732.346C320.208 732.002 320.518 731.585 320.589 731.094C320.649 730.727 320.557 730.428 320.314 730.197C320.077 729.966 319.654 729.783 319.045 729.647L316.807 729.158C315.541 728.88 314.638 728.41 314.1 727.747C313.567 727.078 313.387 726.235 313.558 725.217C313.7 724.388 314.046 723.675 314.597 723.077C315.153 722.473 315.866 722.009 316.736 721.683C317.606 721.352 318.58 721.186 319.657 721.186C321.279 721.186 322.501 721.526 323.324 722.207C324.146 722.888 324.573 723.808 324.602 724.968ZM350.771 722.953H347.504C347.504 722.408 347.415 721.926 347.237 721.506C347.06 721.08 346.811 720.719 346.492 720.423C346.172 720.127 345.793 719.905 345.355 719.757C344.917 719.603 344.432 719.526 343.899 719.526C342.881 719.526 341.934 719.783 341.059 720.298C340.183 720.813 339.44 721.562 338.83 722.544C338.221 723.521 337.797 724.708 337.561 726.104C337.342 727.466 337.362 728.605 337.623 729.522C337.889 730.44 338.351 731.132 339.008 731.6C339.665 732.061 340.464 732.292 341.405 732.292C341.979 732.292 342.529 732.221 343.056 732.079C343.583 731.931 344.068 731.715 344.512 731.431C344.962 731.141 345.355 730.789 345.693 730.375C346.036 729.96 346.302 729.49 346.492 728.963H349.803C349.531 729.827 349.131 730.641 348.605 731.404C348.078 732.162 347.445 732.831 346.705 733.411C345.965 733.985 345.136 734.435 344.219 734.76C343.302 735.086 342.313 735.249 341.254 735.249C339.626 735.249 338.232 734.87 337.072 734.112C335.918 733.349 335.09 732.257 334.587 730.836C334.083 729.41 333.995 727.702 334.32 725.714C334.646 723.778 335.273 722.13 336.202 720.769C337.137 719.408 338.277 718.369 339.62 717.653C340.97 716.931 342.423 716.57 343.979 716.57C345.009 716.57 345.944 716.712 346.785 716.996C347.631 717.28 348.356 717.697 348.96 718.248C349.563 718.792 350.022 719.461 350.336 720.254C350.655 721.041 350.8 721.941 350.771 722.953ZM358.149 735.266C356.805 735.266 355.687 734.97 354.793 734.379C353.905 733.787 353.281 732.955 352.92 731.884C352.559 730.813 352.494 729.57 352.725 728.155C352.955 726.758 353.417 725.536 354.11 724.489C354.808 723.441 355.687 722.63 356.746 722.056C357.812 721.476 359.004 721.186 360.324 721.186C361.668 721.186 362.783 721.485 363.671 722.083C364.559 722.675 365.183 723.506 365.544 724.577C365.911 725.649 365.979 726.897 365.748 728.324C365.523 729.715 365.059 730.931 364.355 731.973C363.656 733.014 362.777 733.825 361.718 734.405C360.658 734.979 359.469 735.266 358.149 735.266ZM358.415 732.692C359.161 732.692 359.815 732.491 360.377 732.088C360.945 731.68 361.41 731.132 361.771 730.446C362.138 729.753 362.393 728.984 362.535 728.137C362.665 727.321 362.668 726.581 362.544 725.918C362.419 725.249 362.153 724.719 361.744 724.329C361.342 723.932 360.783 723.734 360.067 723.734C359.321 723.734 358.661 723.941 358.087 724.355C357.519 724.764 357.054 725.314 356.693 726.007C356.332 726.693 356.083 727.46 355.947 728.306C355.811 729.123 355.805 729.863 355.93 730.526C356.054 731.188 356.32 731.715 356.729 732.106C357.137 732.496 357.699 732.692 358.415 732.692ZM374.108 716.818L371.089 735H367.875L370.894 716.818H374.108ZM381.126 716.818L378.108 735H374.894L377.912 716.818H381.126ZM381.912 735L384.185 721.364H387.399L385.126 735H381.912ZM386.263 719.411C385.748 719.411 385.321 719.239 384.984 718.896C384.647 718.552 384.499 718.141 384.54 717.662C384.582 717.182 384.798 716.771 385.188 716.428C385.585 716.084 386.038 715.913 386.547 715.913C387.062 715.913 387.485 716.084 387.816 716.428C388.153 716.771 388.301 717.182 388.26 717.662C388.225 718.141 388.008 718.552 387.612 718.896C387.221 719.239 386.772 719.411 386.263 719.411ZM393.476 727.01L392.162 735H388.94L391.213 721.364H394.293L393.903 723.681H394.071C394.497 722.917 395.095 722.311 395.865 721.861C396.634 721.411 397.531 721.186 398.555 721.186C399.484 721.186 400.265 721.387 400.898 721.79C401.532 722.186 401.981 722.769 402.248 723.539C402.514 724.302 402.555 725.228 402.372 726.317L400.916 735H397.702L399.061 726.815C399.214 725.909 399.099 725.199 398.714 724.684C398.336 724.163 397.726 723.903 396.885 723.903C396.323 723.903 395.805 724.027 395.332 724.276C394.858 724.518 394.459 724.87 394.133 725.332C393.814 725.794 393.595 726.353 393.476 727.01ZM417.103 724.968L414.147 725.288C414.117 724.986 414.026 724.705 413.872 724.444C413.718 724.184 413.487 723.977 413.179 723.823C412.877 723.663 412.487 723.583 412.007 723.583C411.309 723.583 410.696 723.74 410.17 724.054C409.643 724.367 409.344 724.77 409.273 725.261C409.208 725.628 409.297 725.927 409.539 726.158C409.782 726.388 410.232 726.584 410.889 726.744L413.144 727.241C414.387 727.519 415.28 727.969 415.825 728.59C416.375 729.212 416.568 730.025 416.402 731.032C416.26 731.872 415.893 732.612 415.301 733.251C414.709 733.884 413.952 734.379 413.028 734.734C412.111 735.089 411.093 735.266 409.974 735.266C408.276 735.266 406.968 734.914 406.05 734.21C405.139 733.5 404.686 732.523 404.692 731.28L407.852 730.978C407.888 731.594 408.104 732.058 408.501 732.372C408.897 732.68 409.448 732.837 410.152 732.843C410.945 732.849 411.614 732.683 412.158 732.346C412.709 732.002 413.019 731.585 413.09 731.094C413.15 730.727 413.058 730.428 412.815 730.197C412.578 729.966 412.155 729.783 411.546 729.647L409.308 729.158C408.042 728.88 407.139 728.41 406.601 727.747C406.068 727.078 405.887 726.235 406.059 725.217C406.201 724.388 406.547 723.675 407.098 723.077C407.654 722.473 408.367 722.009 409.237 721.683C410.107 721.352 411.081 721.186 412.158 721.186C413.78 721.186 415.002 721.526 415.825 722.207C416.647 722.888 417.074 723.808 417.103 724.968Z" fill="white" fill-opacity="0.5"/>
<path d="M93 766V66H87V766H93Z" fill="#A5A8AB" mask="url(#path-2-inside-1_550_33)"/>
<path d="M14.2188 75.5455L9.9929 101H6.91051L10.5895 78.777H10.4403L3.52983 82.9034L4.0767 79.7713L11.1364 75.5455H14.2188ZM26.2664 101.348C24.3938 101.348 22.8857 100.838 21.7423 99.8192C20.5988 98.7918 19.8448 97.3045 19.4802 95.3572C19.1156 93.4018 19.157 91.0402 19.6045 88.2727C20.0519 85.5218 20.7852 83.1727 21.8044 81.2255C22.8236 79.27 24.0789 77.7785 25.5704 76.7511C27.0619 75.7153 28.7356 75.1974 30.5917 75.1974C32.4478 75.1974 33.9517 75.7153 35.1034 76.7511C36.2634 77.7868 37.034 79.2783 37.4152 81.2255C37.8046 83.1727 37.7674 85.5218 37.3033 88.2727C36.8393 91.0402 36.0977 93.3976 35.0786 95.3448C34.0594 97.292 32.804 98.7794 31.3126 99.8068C29.8211 100.834 28.139 101.348 26.2664 101.348ZM26.7139 98.6136C28.5782 98.6136 30.1732 97.7187 31.499 95.929C32.8331 94.1309 33.7735 91.5788 34.3204 88.2727C34.685 86.0687 34.7595 84.1919 34.5441 82.6424C34.3287 81.0929 33.8481 79.9122 33.1023 79.1001C32.3566 78.2881 31.3706 77.8821 30.1442 77.8821C28.3048 77.8821 26.7221 78.7894 25.3964 80.604C24.0706 82.4104 23.1343 84.9666 22.5874 88.2727C22.2228 90.4768 22.1441 92.3494 22.3513 93.8906C22.5584 95.4318 23.0307 96.6043 23.7682 97.408C24.5056 98.2118 25.4875 98.6136 26.7139 98.6136ZM42.2354 101.199C41.6057 101.199 41.0795 100.983 40.6569 100.553C40.2343 100.113 40.0148 99.5831 39.9982 98.9616C39.9899 98.3402 40.2095 97.8223 40.6569 97.408C41.1044 96.9854 41.6305 96.7741 42.2354 96.7741C42.8486 96.7741 43.3789 96.9896 43.8263 97.4205C44.2738 97.8513 44.4892 98.3651 44.4726 98.9616C44.4643 99.3759 44.3566 99.753 44.1495 100.093C43.9506 100.432 43.6813 100.702 43.3416 100.901C43.0101 101.099 42.6414 101.199 42.2354 101.199ZM57.4027 101.348C55.5301 101.348 54.0221 100.838 52.8786 99.8192C51.7351 98.7918 50.9811 97.3045 50.6165 95.3572C50.2519 93.4018 50.2934 91.0402 50.7408 88.2727C51.1882 85.5218 51.9216 83.1727 52.9407 81.2255C53.9599 79.27 55.2152 77.7785 56.7067 76.7511C58.1982 75.7153 59.872 75.1974 61.728 75.1974C63.5841 75.1974 65.088 75.7153 66.2397 76.7511C67.3998 77.7868 68.1704 79.2783 68.5515 81.2255C68.941 83.1727 68.9037 85.5218 68.4397 88.2727C67.9757 91.0402 67.2341 93.3976 66.2149 95.3448C65.1957 97.292 63.9404 98.7794 62.4489 99.8068C60.9574 100.834 59.2754 101.348 57.4027 101.348ZM57.8502 98.6136C59.7145 98.6136 61.3096 97.7187 62.6353 95.929C63.9694 94.1309 64.9098 91.5788 65.4567 88.2727C65.8213 86.0687 65.8959 84.1919 65.6804 82.6424C65.465 81.0929 64.9844 79.9122 64.2387 79.1001C63.4929 78.2881 62.5069 77.8821 61.2806 77.8821C59.4411 77.8821 57.8585 78.7894 56.5327 80.604C55.2069 82.4104 54.2706 84.9666 53.7238 88.2727C53.3592 90.4768 53.2805 92.3494 53.4876 93.8906C53.6948 95.4318 54.1671 96.6043 54.9045 97.408C55.642 98.2118 56.6239 98.6136 57.8502 98.6136Z" fill="white"/>
<path d="M13.2741 245.197C14.343 245.206 15.3788 245.409 16.3814 245.806C17.384 246.196 18.2499 246.85 18.979 247.77C19.7082 248.69 20.2054 249.937 20.4705 251.511C20.744 253.077 20.6818 255.049 20.2841 257.428C19.9112 259.665 19.3726 261.649 18.6683 263.381C17.9723 265.105 17.1354 266.559 16.1577 267.744C15.1799 268.929 14.0779 269.828 12.8516 270.441C11.6335 271.046 10.3161 271.348 8.89915 271.348C7.49053 271.348 6.2642 271.066 5.22017 270.503C4.18442 269.931 3.38068 269.14 2.80895 268.129C2.2455 267.11 1.97206 265.929 1.98864 264.587H4.92188C4.97159 265.78 5.3196 266.749 5.96591 267.495C6.6205 268.241 7.63139 268.614 8.99858 268.614C10.9624 268.614 12.6817 267.773 14.1566 266.091C15.6398 264.4 16.6548 261.927 17.2017 258.67L17.0028 258.869C16.4228 259.565 15.7807 260.158 15.0763 260.647C14.372 261.136 13.6222 261.508 12.8267 261.765C12.0313 262.022 11.2027 262.151 10.3409 262.151C8.84943 262.151 7.54439 261.778 6.42578 261.032C5.30717 260.286 4.48272 259.263 3.95241 257.962C3.42211 256.661 3.29782 255.174 3.57955 253.5C3.8447 251.959 4.42057 250.558 5.30717 249.299C6.20206 248.031 7.32895 247.025 8.68786 246.279C10.055 245.533 11.5838 245.173 13.2741 245.197ZM13.1747 247.932C12.1141 247.932 11.1115 248.197 10.1669 248.727C9.2223 249.258 8.4227 249.974 7.76811 250.877C7.11352 251.781 6.69508 252.787 6.51278 253.898C6.34706 254.909 6.42164 255.833 6.73651 256.669C7.05137 257.506 7.56096 258.173 8.26527 258.67C8.96958 259.168 9.82718 259.416 10.8381 259.416C11.6501 259.416 12.4331 259.255 13.1871 258.931C13.9412 258.608 14.6248 258.169 15.2379 257.614C15.8594 257.051 16.3772 256.413 16.7915 255.7C17.2058 254.979 17.4751 254.229 17.5994 253.45C17.7652 252.473 17.6906 251.565 17.3757 250.728C17.0608 249.891 16.543 249.216 15.8221 248.702C15.1012 248.189 14.2188 247.932 13.1747 247.932ZM25.2317 271.199C24.602 271.199 24.0758 270.983 23.6532 270.553C23.2306 270.113 23.0111 269.583 22.9945 268.962C22.9862 268.34 23.2058 267.822 23.6532 267.408C24.1007 266.985 24.6268 266.774 25.2317 266.774C25.8449 266.774 26.3752 266.99 26.8226 267.42C27.27 267.851 27.4855 268.365 27.4689 268.962C27.4606 269.376 27.3529 269.753 27.1458 270.093C26.9469 270.432 26.6776 270.702 26.3379 270.901C26.0064 271.099 25.6377 271.199 25.2317 271.199ZM40.399 271.348C38.5264 271.348 37.0183 270.838 35.8749 269.819C34.7314 268.792 33.9774 267.304 33.6128 265.357C33.2482 263.402 33.2896 261.04 33.7371 258.273C34.1845 255.522 34.9178 253.173 35.937 251.225C36.9562 249.27 38.2115 247.779 39.703 246.751C41.1945 245.715 42.8682 245.197 44.7243 245.197C46.5804 245.197 48.0843 245.715 49.236 246.751C50.3961 247.787 51.1667 249.278 51.5478 251.225C51.9373 253.173 51.9 255.522 51.436 258.273C50.9719 261.04 50.2303 263.398 49.2112 265.345C48.192 267.292 46.9367 268.779 45.4452 269.807C43.9537 270.834 42.2717 271.348 40.399 271.348ZM40.8465 268.614C42.7108 268.614 44.3059 267.719 45.6316 265.929C46.9657 264.131 47.9061 261.579 48.453 258.273C48.8176 256.069 48.8922 254.192 48.6767 252.642C48.4613 251.093 47.9807 249.912 47.235 249.1C46.4892 248.288 45.5032 247.882 44.2769 247.882C42.4374 247.882 40.8548 248.789 39.529 250.604C38.2032 252.41 37.2669 254.967 36.72 258.273C36.3555 260.477 36.2767 262.349 36.4839 263.891C36.691 265.432 37.1633 266.604 37.9008 267.408C38.6383 268.212 39.6201 268.614 40.8465 268.614Z" fill="white"/>
<path d="M9.34659 447.348C7.60653 447.348 6.1192 447.029 4.88459 446.391C3.65826 445.745 2.75923 444.871 2.1875 443.768C1.62405 442.666 1.45833 441.424 1.69034 440.04C1.86435 438.996 2.23722 438.03 2.80895 437.144C3.38068 436.257 4.0767 435.516 4.89702 434.919C5.72562 434.322 6.61222 433.941 7.55682 433.776V433.676C6.38849 433.353 5.54747 432.636 5.03374 431.526C4.52829 430.407 4.40814 429.152 4.6733 427.76C4.92188 426.476 5.44804 425.34 6.25178 424.354C7.05552 423.368 8.06226 422.598 9.27202 422.043C10.4818 421.479 11.8158 421.197 13.2741 421.197C14.7822 421.197 16.0831 421.504 17.1768 422.117C18.2706 422.722 19.0743 423.551 19.5881 424.603C20.1101 425.647 20.2592 426.832 20.0355 428.158C19.7952 429.575 19.2028 430.776 18.2582 431.762C17.3136 432.74 16.2322 433.378 15.0142 433.676V433.776C15.9091 433.958 16.6838 434.368 17.3384 435.006C18.0013 435.644 18.4819 436.435 18.7802 437.38C19.0785 438.316 19.1323 439.335 18.9418 440.438C18.718 441.788 18.1587 442.985 17.2638 444.029C16.369 445.065 15.2379 445.877 13.8707 446.466C12.5118 447.054 11.0038 447.348 9.34659 447.348ZM9.44602 444.614C10.6475 444.614 11.7122 444.419 12.6403 444.029C13.5683 443.632 14.3223 443.081 14.9023 442.376C15.4906 441.664 15.8594 440.835 16.0085 439.891C16.1577 438.946 16.0541 438.122 15.6978 437.417C15.3415 436.705 14.7863 436.154 14.0323 435.764C13.2783 435.366 12.3793 435.168 11.3352 435.168C10.2249 435.168 9.19744 435.387 8.25284 435.826C7.30824 436.266 6.52107 436.87 5.89134 437.641C5.26989 438.412 4.88045 439.294 4.72301 440.288C4.58215 441.175 4.67744 441.946 5.00888 442.6C5.34032 443.246 5.88305 443.744 6.63707 444.092C7.3911 444.44 8.32742 444.614 9.44602 444.614ZM11.4347 432.533C12.4041 432.533 13.2866 432.338 14.082 431.949C14.8858 431.559 15.5487 431.02 16.0707 430.333C16.601 429.645 16.9448 428.854 17.1023 427.959C17.2597 427.097 17.1976 426.364 16.9158 425.759C16.6424 425.146 16.1908 424.682 15.5611 424.367C14.9313 424.044 14.1525 423.882 13.2244 423.882C12.2218 423.882 11.3187 424.069 10.5149 424.441C9.71946 424.814 9.06487 425.336 8.55114 426.007C8.03741 426.679 7.70597 427.462 7.55682 428.357C7.41596 429.227 7.49053 429.976 7.78054 430.606C8.07055 431.228 8.53042 431.704 9.16016 432.036C9.79818 432.367 10.5563 432.533 11.4347 432.533ZM25.0608 447.199C24.4311 447.199 23.9049 446.983 23.4823 446.553C23.0597 446.113 22.8402 445.583 22.8236 444.962C22.8153 444.34 23.0349 443.822 23.4823 443.408C23.9298 442.985 24.4559 442.774 25.0608 442.774C25.674 442.774 26.2043 442.99 26.6517 443.42C27.0991 443.851 27.3146 444.365 27.298 444.962C27.2897 445.376 27.182 445.753 26.9749 446.093C26.776 446.432 26.5067 446.702 26.167 446.901C25.8355 447.099 25.4668 447.199 25.0608 447.199ZM40.2281 447.348C38.3555 447.348 36.8474 446.838 35.704 445.819C34.5605 444.792 33.8065 443.304 33.4419 441.357C33.0773 439.402 33.1187 437.04 33.5662 434.273C34.0136 431.522 34.7469 429.173 35.7661 427.225C36.7853 425.27 38.0406 423.779 39.5321 422.751C41.0236 421.715 42.6973 421.197 44.5534 421.197C46.4095 421.197 47.9134 421.715 49.0651 422.751C50.2252 423.787 50.9958 425.278 51.3769 427.225C51.7664 429.173 51.7291 431.522 51.2651 434.273C50.801 437.04 50.0594 439.398 49.0403 441.345C48.0211 443.292 46.7658 444.779 45.2743 445.807C43.7828 446.834 42.1008 447.348 40.2281 447.348ZM40.6756 444.614C42.5399 444.614 44.135 443.719 45.4607 441.929C46.7948 440.131 47.7352 437.579 48.2821 434.273C48.6467 432.069 48.7213 430.192 48.5058 428.642C48.2904 427.093 47.8098 425.912 47.0641 425.1C46.3183 424.288 45.3323 423.882 44.106 423.882C42.2665 423.882 40.6839 424.789 39.3581 426.604C38.0323 428.41 37.096 430.967 36.5491 434.273C36.1846 436.477 36.1058 438.349 36.313 439.891C36.5201 441.432 36.9924 442.604 37.7299 443.408C38.4674 444.212 39.4492 444.614 40.6756 444.614Z" fill="white"/>
<path d="M1.83949 622L16.9531 599.479L17.0028 599.28H3.87784L4.32528 596.545H20.6321L20.1349 599.429L5.07102 622H1.83949ZM19.8997 622.199C19.2699 622.199 18.7438 621.983 18.3212 621.553C17.8986 621.113 17.679 620.583 17.6624 619.962C17.6542 619.34 17.8737 618.822 18.3212 618.408C18.7686 617.985 19.2948 617.774 19.8997 617.774C20.5128 617.774 21.0431 617.99 21.4906 618.42C21.938 618.851 22.1535 619.365 22.1369 619.962C22.1286 620.376 22.0209 620.753 21.8137 621.093C21.6149 621.432 21.3456 621.702 21.0058 621.901C20.6744 622.099 20.3057 622.199 19.8997 622.199ZM35.067 622.348C33.1944 622.348 31.6863 621.838 30.5428 620.819C29.3994 619.792 28.6454 618.304 28.2808 616.357C27.9162 614.402 27.9576 612.04 28.4051 609.273C28.8525 606.522 29.5858 604.173 30.605 602.225C31.6242 600.27 32.8795 598.779 34.371 597.751C35.8624 596.715 37.5362 596.197 39.3923 596.197C41.2483 596.197 42.7522 596.715 43.904 597.751C45.064 598.787 45.8346 600.278 46.2158 602.225C46.6052 604.173 46.5679 606.522 46.1039 609.273C45.6399 612.04 44.8983 614.398 43.8791 616.345C42.86 618.292 41.6046 619.779 40.1132 620.807C38.6217 621.834 36.9396 622.348 35.067 622.348ZM35.5144 619.614C37.3788 619.614 38.9738 618.719 40.2996 616.929C41.6336 615.131 42.5741 612.579 43.121 609.273C43.4856 607.069 43.5601 605.192 43.3447 603.642C43.1293 602.093 42.6487 600.912 41.9029 600.1C41.1572 599.288 40.1712 598.882 38.9448 598.882C37.1053 598.882 35.5227 599.789 34.197 601.604C32.8712 603.41 31.9349 605.967 31.388 609.273C31.0234 611.477 30.9447 613.349 31.1519 614.891C31.359 616.432 31.8313 617.604 32.5688 618.408C33.3062 619.212 34.2881 619.614 35.5144 619.614Z" fill="white"/>
<path d="M605.24 818H601.746L609.597 796.182H613.401L621.252 818H617.758L611.589 800.145H611.419L605.24 818ZM605.826 809.456H617.161V812.226H605.826V809.456ZM632.56 801.636V804.193H623.622V801.636H632.56ZM626.019 797.716H629.204V813.195C629.204 813.813 629.297 814.278 629.481 814.591C629.666 814.896 629.904 815.106 630.195 815.219C630.494 815.326 630.817 815.379 631.165 815.379C631.42 815.379 631.644 815.362 631.836 815.326C632.028 815.29 632.177 815.262 632.283 815.241L632.859 817.872C632.674 817.943 632.411 818.014 632.07 818.085C631.729 818.163 631.303 818.206 630.792 818.213C629.954 818.227 629.173 818.078 628.448 817.766C627.724 817.453 627.138 816.97 626.69 816.317C626.243 815.663 626.019 814.843 626.019 813.856V797.716ZM644.601 818.33C643.067 818.33 641.728 817.979 640.585 817.276C639.441 816.572 638.553 815.589 637.921 814.325C637.289 813.06 636.973 811.583 636.973 809.893C636.973 808.195 637.289 806.711 637.921 805.44C638.553 804.168 639.441 803.181 640.585 802.478C641.728 801.775 643.067 801.423 644.601 801.423C646.135 801.423 647.474 801.775 648.617 802.478C649.761 803.181 650.648 804.168 651.281 805.44C651.913 806.711 652.229 808.195 652.229 809.893C652.229 811.583 651.913 813.06 651.281 814.325C650.648 815.589 649.761 816.572 648.617 817.276C647.474 817.979 646.135 818.33 644.601 818.33ZM644.612 815.656C645.606 815.656 646.43 815.393 647.083 814.868C647.737 814.342 648.219 813.643 648.532 812.769C648.852 811.896 649.011 810.933 649.011 809.882C649.011 808.838 648.852 807.879 648.532 807.006C648.219 806.125 647.737 805.418 647.083 804.886C646.43 804.353 645.606 804.087 644.612 804.087C643.61 804.087 642.779 804.353 642.119 804.886C641.465 805.418 640.979 806.125 640.659 807.006C640.347 807.879 640.19 808.838 640.19 809.882C640.19 810.933 640.347 811.896 640.659 812.769C640.979 813.643 641.465 814.342 642.119 814.868C642.779 815.393 643.61 815.656 644.612 815.656ZM657.584 818V801.636H660.642V804.3H660.844C661.185 803.398 661.743 802.695 662.517 802.19C663.291 801.679 664.218 801.423 665.297 801.423C666.391 801.423 667.307 801.679 668.046 802.19C668.792 802.702 669.342 803.405 669.697 804.3H669.868C670.258 803.426 670.88 802.73 671.732 802.212C672.584 801.686 673.6 801.423 674.779 801.423C676.263 801.423 677.474 801.888 678.412 802.819C679.356 803.749 679.829 805.152 679.829 807.027V818H676.643V807.325C676.643 806.217 676.341 805.415 675.738 804.918C675.134 804.42 674.413 804.172 673.575 804.172C672.538 804.172 671.732 804.491 671.157 805.131C670.581 805.763 670.294 806.576 670.294 807.57V818H667.119V807.123C667.119 806.235 666.842 805.521 666.288 804.982C665.734 804.442 665.013 804.172 664.125 804.172C663.522 804.172 662.964 804.332 662.453 804.651C661.949 804.964 661.54 805.401 661.228 805.962C660.922 806.523 660.77 807.173 660.77 807.911V818H657.584ZM685.898 818V801.636H689.083V818H685.898ZM687.507 799.112C686.953 799.112 686.477 798.927 686.079 798.558C685.688 798.181 685.493 797.734 685.493 797.215C685.493 796.69 685.688 796.242 686.079 795.873C686.477 795.496 686.953 795.308 687.507 795.308C688.061 795.308 688.533 795.496 688.924 795.873C689.321 796.242 689.52 796.69 689.52 797.215C689.52 797.734 689.321 798.181 688.924 798.558C688.533 798.927 688.061 799.112 687.507 799.112ZM702.061 818.33C700.478 818.33 699.114 817.972 697.971 817.254C696.834 816.53 695.961 815.532 695.35 814.261C694.739 812.989 694.434 811.533 694.434 809.893C694.434 808.231 694.746 806.764 695.371 805.493C695.996 804.214 696.877 803.217 698.013 802.499C699.15 801.782 700.488 801.423 702.029 801.423C703.272 801.423 704.38 801.654 705.353 802.116C706.326 802.57 707.111 803.21 707.708 804.033C708.311 804.857 708.67 805.82 708.784 806.92H705.684C705.513 806.153 705.123 805.493 704.512 804.939C703.908 804.385 703.098 804.108 702.083 804.108C701.195 804.108 700.417 804.342 699.75 804.811C699.089 805.273 698.574 805.933 698.205 806.793C697.836 807.645 697.651 808.653 697.651 809.818C697.651 811.011 697.832 812.041 698.194 812.908C698.556 813.774 699.068 814.445 699.728 814.921C700.396 815.397 701.181 815.635 702.083 815.635C702.686 815.635 703.233 815.525 703.723 815.305C704.221 815.077 704.636 814.754 704.97 814.335C705.311 813.916 705.549 813.412 705.684 812.822H708.784C708.67 813.881 708.326 814.825 707.75 815.656C707.175 816.487 706.404 817.141 705.439 817.616C704.48 818.092 703.354 818.33 702.061 818.33ZM723.985 818V796.182H727.277V805.663H738.154V796.182H741.457V818H738.154V808.487H727.277V818H723.985ZM752.557 818.362C751.52 818.362 750.583 818.17 749.745 817.787C748.907 817.396 748.243 816.832 747.753 816.093C747.27 815.354 747.028 814.449 747.028 813.376C747.028 812.453 747.206 811.693 747.561 811.097C747.916 810.5 748.395 810.028 748.999 809.68C749.603 809.332 750.277 809.069 751.023 808.891C751.769 808.714 752.529 808.579 753.303 808.487C754.283 808.373 755.079 808.281 755.689 808.21C756.3 808.131 756.744 808.007 757.021 807.837C757.298 807.666 757.437 807.389 757.437 807.006V806.931C757.437 806.001 757.174 805.28 756.648 804.768C756.13 804.257 755.356 804.001 754.326 804.001C753.253 804.001 752.408 804.239 751.79 804.715C751.179 805.184 750.757 805.706 750.523 806.281L747.529 805.599C747.884 804.605 748.402 803.803 749.084 803.192C749.773 802.574 750.565 802.126 751.46 801.849C752.355 801.565 753.296 801.423 754.283 801.423C754.937 801.423 755.629 801.501 756.361 801.658C757.099 801.807 757.788 802.084 758.427 802.489C759.074 802.893 759.603 803.472 760.015 804.225C760.427 804.971 760.633 805.94 760.633 807.134V818H757.522V815.763H757.394C757.188 816.175 756.879 816.58 756.467 816.977C756.055 817.375 755.526 817.705 754.88 817.968C754.233 818.231 753.459 818.362 752.557 818.362ZM753.25 815.805C754.13 815.805 754.883 815.631 755.508 815.283C756.14 814.935 756.62 814.481 756.947 813.92C757.28 813.352 757.447 812.744 757.447 812.098V809.989C757.334 810.102 757.113 810.209 756.787 810.308C756.467 810.401 756.101 810.482 755.689 810.553C755.277 810.617 754.876 810.678 754.486 810.734C754.095 810.784 753.768 810.827 753.505 810.862C752.888 810.94 752.323 811.072 751.812 811.256C751.307 811.441 750.902 811.707 750.597 812.055C750.299 812.396 750.15 812.851 750.15 813.419C750.15 814.207 750.441 814.804 751.023 815.209C751.606 815.607 752.348 815.805 753.25 815.805ZM766.931 818V796.182H770.116V804.289H770.308C770.493 803.948 770.759 803.554 771.107 803.107C771.455 802.659 771.938 802.268 772.556 801.935C773.174 801.594 773.991 801.423 775.006 801.423C776.327 801.423 777.506 801.757 778.543 802.425C779.58 803.092 780.393 804.055 780.983 805.312C781.579 806.569 781.878 808.082 781.878 809.85C781.878 811.619 781.583 813.135 780.993 814.399C780.404 815.656 779.594 816.626 778.565 817.308C777.535 817.982 776.359 818.32 775.038 818.32C774.044 818.32 773.231 818.153 772.599 817.819C771.974 817.485 771.484 817.094 771.128 816.647C770.773 816.2 770.5 815.802 770.308 815.454H770.042V818H766.931ZM770.052 809.818C770.052 810.969 770.219 811.977 770.553 812.844C770.887 813.71 771.37 814.388 772.002 814.879C772.634 815.362 773.408 815.603 774.324 815.603C775.276 815.603 776.072 815.351 776.711 814.847C777.35 814.335 777.833 813.643 778.16 812.769C778.493 811.896 778.66 810.912 778.66 809.818C778.66 808.739 778.497 807.769 778.17 806.91C777.851 806.05 777.368 805.372 776.721 804.875C776.082 804.378 775.283 804.129 774.324 804.129C773.401 804.129 772.62 804.367 771.981 804.843C771.349 805.319 770.869 805.983 770.543 806.835C770.216 807.687 770.052 808.682 770.052 809.818ZM787.255 818V801.636H790.44V818H787.255ZM788.863 799.112C788.309 799.112 787.833 798.927 787.436 798.558C787.045 798.181 786.85 797.734 786.85 797.215C786.85 796.69 787.045 796.242 787.436 795.873C787.833 795.496 788.309 795.308 788.863 795.308C789.417 795.308 789.89 795.496 790.28 795.873C790.678 796.242 790.877 796.69 790.877 797.215C790.877 797.734 790.678 798.181 790.28 798.558C789.89 798.927 789.417 799.112 788.863 799.112ZM804.164 801.636V804.193H795.226V801.636H804.164ZM797.623 797.716H800.808V813.195C800.808 813.813 800.9 814.278 801.085 814.591C801.27 814.896 801.508 815.106 801.799 815.219C802.097 815.326 802.42 815.379 802.768 815.379C803.024 815.379 803.248 815.362 803.439 815.326C803.631 815.29 803.78 815.262 803.887 815.241L804.462 817.872C804.277 817.943 804.015 818.014 803.674 818.085C803.333 818.163 802.907 818.206 802.395 818.213C801.557 818.227 800.776 818.078 800.052 817.766C799.327 817.453 798.741 816.97 798.294 816.317C797.846 815.663 797.623 814.843 797.623 813.856V797.716ZM821.486 805.631L818.599 806.143C818.478 805.773 818.286 805.422 818.023 805.088C817.768 804.754 817.42 804.481 816.979 804.268C816.539 804.055 815.989 803.948 815.328 803.948C814.426 803.948 813.673 804.151 813.07 804.555C812.466 804.953 812.164 805.468 812.164 806.1C812.164 806.647 812.367 807.087 812.771 807.421C813.176 807.755 813.83 808.028 814.732 808.241L817.331 808.838C818.837 809.186 819.959 809.722 820.697 810.447C821.436 811.171 821.805 812.112 821.805 813.27C821.805 814.25 821.521 815.124 820.953 815.891C820.392 816.651 819.607 817.247 818.599 817.68C817.597 818.114 816.436 818.33 815.115 818.33C813.283 818.33 811.788 817.94 810.63 817.158C809.472 816.37 808.762 815.251 808.499 813.803L811.578 813.334C811.77 814.136 812.164 814.744 812.761 815.156C813.357 815.56 814.135 815.763 815.094 815.763C816.138 815.763 816.972 815.546 817.597 815.113C818.222 814.673 818.535 814.136 818.535 813.504C818.535 812.993 818.343 812.563 817.96 812.215C817.583 811.867 817.004 811.604 816.223 811.427L813.453 810.82C811.926 810.472 810.797 809.918 810.065 809.158C809.341 808.398 808.979 807.435 808.979 806.271C808.979 805.305 809.249 804.46 809.788 803.735C810.328 803.011 811.074 802.446 812.026 802.041C812.977 801.629 814.068 801.423 815.296 801.423C817.065 801.423 818.457 801.807 819.472 802.574C820.488 803.334 821.159 804.353 821.486 805.631Z" fill="white" fill-opacity="0.7"/>
<path d="M1018.64 809.739V807.075L1028.07 792.182H1030.17V796.102H1028.84L1022.09 806.777V806.947H1035.01V809.739H1018.64ZM1028.99 814V808.929L1029.01 807.714V792.182H1032.13V814H1028.99ZM1050.31 820.136V797.636H1053.42V800.289H1053.69C1053.87 799.948 1054.14 799.554 1054.49 799.107C1054.83 798.659 1055.32 798.268 1055.93 797.935C1056.55 797.594 1057.37 797.423 1058.38 797.423C1059.71 797.423 1060.88 797.757 1061.92 798.425C1062.96 799.092 1063.77 800.055 1064.36 801.312C1064.96 802.569 1065.26 804.082 1065.26 805.85C1065.26 807.619 1064.96 809.135 1064.37 810.399C1063.78 811.656 1062.97 812.626 1061.94 813.308C1060.91 813.982 1059.74 814.32 1058.42 814.32C1057.42 814.32 1056.61 814.153 1055.98 813.819C1055.35 813.485 1054.86 813.094 1054.51 812.647C1054.15 812.2 1053.88 811.802 1053.69 811.454H1053.5V820.136H1050.31ZM1053.43 805.818C1053.43 806.969 1053.6 807.977 1053.93 808.844C1054.27 809.71 1054.75 810.388 1055.38 810.879C1056.01 811.362 1056.79 811.603 1057.7 811.603C1058.65 811.603 1059.45 811.351 1060.09 810.847C1060.73 810.335 1061.21 809.643 1061.54 808.769C1061.87 807.896 1062.04 806.912 1062.04 805.818C1062.04 804.739 1061.88 803.769 1061.55 802.91C1061.23 802.05 1060.75 801.372 1060.1 800.875C1059.46 800.378 1058.66 800.129 1057.7 800.129C1056.78 800.129 1056 800.367 1055.36 800.843C1054.73 801.319 1054.25 801.983 1053.92 802.835C1053.59 803.687 1053.43 804.682 1053.43 805.818ZM1070.63 814V797.636H1073.81V814H1070.63ZM1072.23 795.112C1071.68 795.112 1071.2 794.927 1070.81 794.558C1070.42 794.181 1070.22 793.734 1070.22 793.215C1070.22 792.69 1070.42 792.242 1070.81 791.873C1071.2 791.496 1071.68 791.308 1072.23 791.308C1072.79 791.308 1073.26 791.496 1073.65 791.873C1074.05 792.242 1074.25 792.69 1074.25 793.215C1074.25 793.734 1074.05 794.181 1073.65 794.558C1073.26 794.927 1072.79 795.112 1072.23 795.112ZM1083.08 792.182V814H1079.9V792.182H1083.08ZM1092.35 792.182V814H1089.17V792.182H1092.35ZM1103.2 814.362C1102.16 814.362 1101.23 814.17 1100.39 813.787C1099.55 813.396 1098.88 812.832 1098.39 812.093C1097.91 811.354 1097.67 810.449 1097.67 809.376C1097.67 808.453 1097.85 807.693 1098.2 807.097C1098.56 806.5 1099.04 806.028 1099.64 805.68C1100.24 805.332 1100.92 805.069 1101.67 804.891C1102.41 804.714 1103.17 804.579 1103.95 804.487C1104.93 804.373 1105.72 804.281 1106.33 804.21C1106.94 804.131 1107.39 804.007 1107.66 803.837C1107.94 803.666 1108.08 803.389 1108.08 803.006V802.931C1108.08 802.001 1107.82 801.28 1107.29 800.768C1106.77 800.257 1106 800.001 1104.97 800.001C1103.9 800.001 1103.05 800.239 1102.43 800.715C1101.82 801.184 1101.4 801.706 1101.16 802.281L1098.17 801.599C1098.53 800.605 1099.04 799.803 1099.73 799.192C1100.42 798.574 1101.21 798.126 1102.1 797.849C1103 797.565 1103.94 797.423 1104.93 797.423C1105.58 797.423 1106.27 797.501 1107 797.658C1107.74 797.807 1108.43 798.084 1109.07 798.489C1109.72 798.893 1110.24 799.472 1110.66 800.225C1111.07 800.971 1111.27 801.94 1111.27 803.134V814H1108.16V811.763H1108.04C1107.83 812.175 1107.52 812.58 1107.11 812.977C1106.7 813.375 1106.17 813.705 1105.52 813.968C1104.88 814.231 1104.1 814.362 1103.2 814.362ZM1103.89 811.805C1104.77 811.805 1105.53 811.631 1106.15 811.283C1106.78 810.935 1107.26 810.481 1107.59 809.92C1107.92 809.352 1108.09 808.744 1108.09 808.098V805.989C1107.98 806.102 1107.76 806.209 1107.43 806.308C1107.11 806.401 1106.74 806.482 1106.33 806.553C1105.92 806.617 1105.52 806.678 1105.13 806.734C1104.74 806.784 1104.41 806.827 1104.15 806.862C1103.53 806.94 1102.97 807.072 1102.45 807.256C1101.95 807.441 1101.54 807.707 1101.24 808.055C1100.94 808.396 1100.79 808.851 1100.79 809.419C1100.79 810.207 1101.08 810.804 1101.67 811.209C1102.25 811.607 1102.99 811.805 1103.89 811.805ZM1117.32 814V797.636H1120.4V800.236H1120.57C1120.87 799.355 1121.39 798.663 1122.14 798.158C1122.9 797.647 1123.76 797.391 1124.72 797.391C1124.92 797.391 1125.15 797.398 1125.42 797.413C1125.7 797.427 1125.92 797.445 1126.07 797.466V800.513C1125.95 800.477 1125.72 800.438 1125.39 800.396C1125.07 800.346 1124.74 800.321 1124.41 800.321C1123.66 800.321 1122.99 800.481 1122.4 800.8C1121.82 801.113 1121.36 801.55 1121.01 802.111C1120.67 802.665 1120.5 803.297 1120.5 804.007V814H1117.32ZM1142.89 801.631L1140.01 802.143C1139.89 801.773 1139.69 801.422 1139.43 801.088C1139.18 800.754 1138.83 800.481 1138.39 800.268C1137.95 800.055 1137.4 799.948 1136.74 799.948C1135.83 799.948 1135.08 800.151 1134.48 800.555C1133.87 800.953 1133.57 801.468 1133.57 802.1C1133.57 802.647 1133.77 803.087 1134.18 803.421C1134.58 803.755 1135.24 804.028 1136.14 804.241L1138.74 804.838C1140.24 805.186 1141.37 805.722 1142.1 806.447C1142.84 807.171 1143.21 808.112 1143.21 809.27C1143.21 810.25 1142.93 811.124 1142.36 811.891C1141.8 812.651 1141.01 813.247 1140.01 813.68C1139 814.114 1137.84 814.33 1136.52 814.33C1134.69 814.33 1133.2 813.94 1132.04 813.158C1130.88 812.37 1130.17 811.251 1129.91 809.803L1132.99 809.334C1133.18 810.136 1133.57 810.744 1134.17 811.156C1134.76 811.56 1135.54 811.763 1136.5 811.763C1137.55 811.763 1138.38 811.546 1139 811.113C1139.63 810.673 1139.94 810.136 1139.94 809.504C1139.94 808.993 1139.75 808.563 1139.37 808.215C1138.99 807.867 1138.41 807.604 1137.63 807.427L1134.86 806.82C1133.33 806.472 1132.2 805.918 1131.47 805.158C1130.75 804.398 1130.39 803.435 1130.39 802.271C1130.39 801.305 1130.66 800.46 1131.2 799.735C1131.74 799.011 1132.48 798.446 1133.43 798.041C1134.38 797.629 1135.47 797.423 1136.7 797.423C1138.47 797.423 1139.86 797.807 1140.88 798.574C1141.9 799.334 1142.57 800.353 1142.89 801.631ZM1165.15 814.33C1163.61 814.33 1162.27 813.979 1161.13 813.276C1159.99 812.572 1159.1 811.589 1158.47 810.325C1157.84 809.06 1157.52 807.583 1157.52 805.893C1157.52 804.195 1157.84 802.711 1158.47 801.44C1159.1 800.168 1159.99 799.181 1161.13 798.478C1162.27 797.775 1163.61 797.423 1165.15 797.423C1166.68 797.423 1168.02 797.775 1169.16 798.478C1170.31 799.181 1171.19 800.168 1171.83 801.44C1172.46 802.711 1172.78 804.195 1172.78 805.893C1172.78 807.583 1172.46 809.06 1171.83 810.325C1171.19 811.589 1170.31 812.572 1169.16 813.276C1168.02 813.979 1166.68 814.33 1165.15 814.33ZM1165.16 811.656C1166.15 811.656 1166.98 811.393 1167.63 810.868C1168.28 810.342 1168.77 809.643 1169.08 808.769C1169.4 807.896 1169.56 806.933 1169.56 805.882C1169.56 804.838 1169.4 803.879 1169.08 803.006C1168.77 802.125 1168.28 801.418 1167.63 800.886C1166.98 800.353 1166.15 800.087 1165.16 800.087C1164.16 800.087 1163.33 800.353 1162.67 800.886C1162.01 801.418 1161.53 802.125 1161.21 803.006C1160.89 803.879 1160.74 804.838 1160.74 805.882C1160.74 806.933 1160.89 807.896 1161.21 808.769C1161.53 809.643 1162.01 810.342 1162.67 810.868C1163.33 811.393 1164.16 811.656 1165.16 811.656ZM1185.92 797.636V800.193H1176.67V797.636H1185.92ZM1179.21 814V795.74C1179.21 794.717 1179.43 793.869 1179.88 793.194C1180.33 792.512 1180.92 792.004 1181.66 791.67C1182.4 791.33 1183.2 791.159 1184.06 791.159C1184.7 791.159 1185.25 791.212 1185.71 791.319C1186.16 791.418 1186.5 791.511 1186.72 791.596L1185.97 794.174C1185.82 794.131 1185.63 794.082 1185.4 794.025C1185.16 793.961 1184.88 793.929 1184.54 793.929C1183.77 793.929 1183.22 794.121 1182.88 794.504C1182.56 794.888 1182.39 795.442 1182.39 796.166V814H1179.21ZM1019.4 853V831.182H1022.69V850.166H1032.58V853H1019.4ZM1044.93 853.33C1043.32 853.33 1041.93 852.986 1040.76 852.297C1039.6 851.601 1038.71 850.624 1038.08 849.367C1037.45 848.103 1037.14 846.622 1037.14 844.925C1037.14 843.249 1037.45 841.771 1038.08 840.493C1038.71 839.214 1039.59 838.217 1040.72 837.499C1041.86 836.782 1043.18 836.423 1044.7 836.423C1045.63 836.423 1046.52 836.576 1047.39 836.881C1048.25 837.187 1049.03 837.666 1049.72 838.32C1050.41 838.973 1050.95 839.822 1051.35 840.866C1051.75 841.903 1051.95 843.163 1051.95 844.648V845.777H1038.94V843.391H1048.83C1048.83 842.553 1048.66 841.81 1048.32 841.164C1047.97 840.511 1047.49 839.996 1046.88 839.619C1046.27 839.243 1045.55 839.055 1044.73 839.055C1043.83 839.055 1043.05 839.275 1042.38 839.715C1041.72 840.148 1041.21 840.717 1040.85 841.42C1040.49 842.116 1040.31 842.872 1040.31 843.689V845.553C1040.31 846.647 1040.51 847.577 1040.89 848.344C1041.28 849.112 1041.82 849.697 1042.52 850.102C1043.22 850.5 1044.03 850.699 1044.96 850.699C1045.56 850.699 1046.11 850.614 1046.61 850.443C1047.11 850.266 1047.54 850.003 1047.9 849.655C1048.26 849.307 1048.54 848.877 1048.73 848.366L1051.75 848.909C1051.5 849.797 1051.07 850.575 1050.45 851.242C1049.83 851.903 1049.05 852.418 1048.11 852.787C1047.18 853.149 1046.12 853.33 1044.93 853.33ZM1062.04 853.362C1061.01 853.362 1060.07 853.17 1059.23 852.787C1058.39 852.396 1057.73 851.832 1057.24 851.093C1056.76 850.354 1056.52 849.449 1056.52 848.376C1056.52 847.453 1056.69 846.693 1057.05 846.097C1057.4 845.5 1057.88 845.028 1058.49 844.68C1059.09 844.332 1059.76 844.069 1060.51 843.891C1061.26 843.714 1062.02 843.579 1062.79 843.487C1063.77 843.373 1064.57 843.281 1065.18 843.21C1065.79 843.131 1066.23 843.007 1066.51 842.837C1066.79 842.666 1066.92 842.389 1066.92 842.006V841.931C1066.92 841.001 1066.66 840.28 1066.14 839.768C1065.62 839.257 1064.84 839.001 1063.81 839.001C1062.74 839.001 1061.9 839.239 1061.28 839.715C1060.67 840.184 1060.24 840.706 1060.01 841.281L1057.02 840.599C1057.37 839.605 1057.89 838.803 1058.57 838.192C1059.26 837.574 1060.05 837.126 1060.95 836.849C1061.84 836.565 1062.78 836.423 1063.77 836.423C1064.42 836.423 1065.12 836.501 1065.85 836.658C1066.59 836.807 1067.28 837.084 1067.91 837.489C1068.56 837.893 1069.09 838.472 1069.5 839.225C1069.91 839.971 1070.12 840.94 1070.12 842.134V853H1067.01V850.763H1066.88C1066.68 851.175 1066.37 851.58 1065.95 851.977C1065.54 852.375 1065.01 852.705 1064.37 852.968C1063.72 853.231 1062.95 853.362 1062.04 853.362ZM1062.74 850.805C1063.62 850.805 1064.37 850.631 1065 850.283C1065.63 849.935 1066.11 849.481 1066.43 848.92C1066.77 848.352 1066.93 847.744 1066.93 847.098V844.989C1066.82 845.102 1066.6 845.209 1066.27 845.308C1065.95 845.401 1065.59 845.482 1065.18 845.553C1064.76 845.617 1064.36 845.678 1063.97 845.734C1063.58 845.784 1063.26 845.827 1062.99 845.862C1062.37 845.94 1061.81 846.072 1061.3 846.256C1060.79 846.441 1060.39 846.707 1060.08 847.055C1059.79 847.396 1059.64 847.851 1059.64 848.419C1059.64 849.207 1059.93 849.804 1060.51 850.209C1061.09 850.607 1061.83 850.805 1062.74 850.805ZM1082.29 853.32C1080.97 853.32 1079.79 852.982 1078.75 852.308C1077.72 851.626 1076.91 850.656 1076.32 849.399C1075.74 848.135 1075.45 846.619 1075.45 844.85C1075.45 843.082 1075.74 841.569 1076.33 840.312C1076.93 839.055 1077.75 838.092 1078.78 837.425C1079.82 836.757 1081 836.423 1082.31 836.423C1083.33 836.423 1084.14 836.594 1084.76 836.935C1085.38 837.268 1085.87 837.659 1086.21 838.107C1086.56 838.554 1086.83 838.948 1087.02 839.289H1087.21V831.182H1090.4V853H1087.28V850.454H1087.02C1086.83 850.802 1086.55 851.2 1086.19 851.647C1085.83 852.094 1085.34 852.485 1084.72 852.819C1084.09 853.153 1083.28 853.32 1082.29 853.32ZM1082.99 850.603C1083.91 850.603 1084.68 850.362 1085.31 849.879C1085.95 849.388 1086.44 848.71 1086.76 847.844C1087.1 846.977 1087.26 845.969 1087.26 844.818C1087.26 843.682 1087.1 842.687 1086.77 841.835C1086.45 840.983 1085.97 840.319 1085.34 839.843C1084.7 839.367 1083.92 839.129 1082.99 839.129C1082.03 839.129 1081.23 839.378 1080.59 839.875C1079.96 840.372 1079.47 841.05 1079.15 841.91C1078.83 842.769 1078.67 843.739 1078.67 844.818C1078.67 845.912 1078.83 846.896 1079.16 847.769C1079.48 848.643 1079.97 849.335 1080.6 849.847C1081.25 850.351 1082.05 850.603 1082.99 850.603ZM1103.79 853.33C1102.18 853.33 1100.79 852.986 1099.63 852.297C1098.47 851.601 1097.58 850.624 1096.94 849.367C1096.32 848.103 1096.01 846.622 1096.01 844.925C1096.01 843.249 1096.32 841.771 1096.94 840.493C1097.58 839.214 1098.46 838.217 1099.59 837.499C1100.72 836.782 1102.05 836.423 1103.57 836.423C1104.49 836.423 1105.39 836.576 1106.26 836.881C1107.12 837.187 1107.9 837.666 1108.59 838.32C1109.28 838.973 1109.82 839.822 1110.22 840.866C1110.62 841.903 1110.81 843.163 1110.81 844.648V845.777H1097.81V843.391H1107.69C1107.69 842.553 1107.52 841.81 1107.18 841.164C1106.84 840.511 1106.36 839.996 1105.74 839.619C1105.13 839.243 1104.42 839.055 1103.59 839.055C1102.7 839.055 1101.92 839.275 1101.25 839.715C1100.59 840.148 1100.08 840.717 1099.71 841.42C1099.36 842.116 1099.18 842.872 1099.18 843.689V845.553C1099.18 846.647 1099.37 847.577 1099.76 848.344C1100.15 849.112 1100.69 849.697 1101.39 850.102C1102.08 850.5 1102.9 850.699 1103.83 850.699C1104.43 850.699 1104.98 850.614 1105.48 850.443C1105.97 850.266 1106.4 850.003 1106.77 849.655C1107.13 849.307 1107.41 848.877 1107.6 848.366L1110.61 848.909C1110.37 849.797 1109.94 850.575 1109.31 851.242C1108.69 851.903 1107.92 852.418 1106.98 852.787C1106.05 853.149 1104.99 853.33 1103.79 853.33ZM1116.15 853V836.636H1119.23V839.236H1119.4C1119.7 838.355 1120.22 837.663 1120.98 837.158C1121.74 836.647 1122.59 836.391 1123.55 836.391C1123.75 836.391 1123.99 836.398 1124.26 836.413C1124.53 836.427 1124.75 836.445 1124.91 836.466V839.513C1124.78 839.477 1124.55 839.438 1124.22 839.396C1123.9 839.346 1123.57 839.321 1123.24 839.321C1122.49 839.321 1121.82 839.481 1121.23 839.8C1120.65 840.113 1120.19 840.55 1119.85 841.111C1119.5 841.665 1119.33 842.297 1119.33 843.007V853H1116.15ZM1141.72 840.631L1138.84 841.143C1138.72 840.773 1138.53 840.422 1138.26 840.088C1138.01 839.754 1137.66 839.481 1137.22 839.268C1136.78 839.055 1136.23 838.948 1135.57 838.948C1134.67 838.948 1133.91 839.151 1133.31 839.555C1132.71 839.953 1132.4 840.468 1132.4 841.1C1132.4 841.647 1132.61 842.087 1133.01 842.421C1133.42 842.755 1134.07 843.028 1134.97 843.241L1137.57 843.838C1139.08 844.186 1140.2 844.722 1140.94 845.447C1141.68 846.171 1142.04 847.112 1142.04 848.27C1142.04 849.25 1141.76 850.124 1141.19 850.891C1140.63 851.651 1139.85 852.247 1138.84 852.68C1137.84 853.114 1136.68 853.33 1135.35 853.33C1133.52 853.33 1132.03 852.94 1130.87 852.158C1129.71 851.37 1129 850.251 1128.74 848.803L1131.82 848.334C1132.01 849.136 1132.4 849.744 1133 850.156C1133.6 850.56 1134.37 850.763 1135.33 850.763C1136.38 850.763 1137.21 850.546 1137.84 850.113C1138.46 849.673 1138.77 849.136 1138.77 848.504C1138.77 847.993 1138.58 847.563 1138.2 847.215C1137.82 846.867 1137.24 846.604 1136.46 846.427L1133.69 845.82C1132.17 845.472 1131.04 844.918 1130.3 844.158C1129.58 843.398 1129.22 842.435 1129.22 841.271C1129.22 840.305 1129.49 839.46 1130.03 838.735C1130.57 838.011 1131.31 837.446 1132.26 837.041C1133.22 836.629 1134.31 836.423 1135.54 836.423C1137.3 836.423 1138.7 836.807 1139.71 837.574C1140.73 838.334 1141.4 839.353 1141.72 840.631ZM1150.53 843.284V853H1147.35V831.182H1150.49V839.3H1150.69C1151.08 838.419 1151.66 837.719 1152.45 837.201C1153.24 836.683 1154.27 836.423 1155.54 836.423C1156.66 836.423 1157.64 836.654 1158.48 837.116C1159.32 837.577 1159.98 838.266 1160.44 839.183C1160.91 840.092 1161.14 841.228 1161.14 842.592V853H1157.96V842.975C1157.96 841.775 1157.65 840.844 1157.03 840.184C1156.41 839.516 1155.55 839.183 1154.45 839.183C1153.7 839.183 1153.03 839.342 1152.43 839.662C1151.84 839.982 1151.37 840.45 1151.03 841.068C1150.7 841.679 1150.53 842.418 1150.53 843.284ZM1167.19 853V836.636H1170.38V853H1167.19ZM1168.8 834.112C1168.25 834.112 1167.77 833.927 1167.37 833.558C1166.98 833.181 1166.79 832.734 1166.79 832.215C1166.79 831.69 1166.98 831.242 1167.37 830.873C1167.77 830.496 1168.25 830.308 1168.8 830.308C1169.36 830.308 1169.83 830.496 1170.22 830.873C1170.62 831.242 1170.82 831.69 1170.82 832.215C1170.82 832.734 1170.62 833.181 1170.22 833.558C1169.83 833.927 1169.36 834.112 1168.8 834.112ZM1176.46 859.136V836.636H1179.58V839.289H1179.84C1180.03 838.948 1180.29 838.554 1180.64 838.107C1180.99 837.659 1181.47 837.268 1182.09 836.935C1182.71 836.594 1183.52 836.423 1184.54 836.423C1185.86 836.423 1187.04 836.757 1188.08 837.425C1189.11 838.092 1189.93 839.055 1190.52 840.312C1191.11 841.569 1191.41 843.082 1191.41 844.85C1191.41 846.619 1191.12 848.135 1190.53 849.399C1189.94 850.656 1189.13 851.626 1188.1 852.308C1187.07 852.982 1185.89 853.32 1184.57 853.32C1183.58 853.32 1182.76 853.153 1182.13 852.819C1181.51 852.485 1181.02 852.094 1180.66 851.647C1180.31 851.2 1180.03 850.802 1179.84 850.454H1179.65V859.136H1176.46ZM1179.59 844.818C1179.59 845.969 1179.75 846.977 1180.09 847.844C1180.42 848.71 1180.9 849.388 1181.54 849.879C1182.17 850.362 1182.94 850.603 1183.86 850.603C1184.81 850.603 1185.61 850.351 1186.24 849.847C1186.88 849.335 1187.37 848.643 1187.69 847.769C1188.03 846.896 1188.19 845.912 1188.19 844.818C1188.19 843.739 1188.03 842.769 1187.7 841.91C1187.38 841.05 1186.9 840.372 1186.25 839.875C1185.62 839.378 1184.82 839.129 1183.86 839.129C1182.93 839.129 1182.15 839.367 1181.51 839.843C1180.88 840.319 1180.4 840.983 1180.08 841.835C1179.75 842.687 1179.59 843.682 1179.59 844.818Z" fill="white" fill-opacity="0.7"/>
<path d="M241.163 803.075C240.957 802.428 240.68 801.849 240.332 801.338C239.991 800.82 239.582 800.379 239.107 800.017C238.631 799.648 238.087 799.367 237.477 799.175C236.873 798.984 236.209 798.888 235.484 798.888C234.256 798.888 233.148 799.204 232.161 799.836C231.173 800.468 230.392 801.395 229.817 802.616C229.249 803.831 228.964 805.319 228.964 807.08C228.964 808.849 229.252 810.344 229.827 811.565C230.403 812.787 231.191 813.714 232.192 814.346C233.194 814.978 234.334 815.294 235.612 815.294C236.798 815.294 237.832 815.053 238.712 814.57C239.6 814.087 240.286 813.405 240.768 812.524C241.259 811.636 241.504 810.592 241.504 809.392L242.356 809.552H236.113V806.835H244.689V809.317C244.689 811.15 244.298 812.741 243.517 814.09C242.743 815.433 241.67 816.469 240.3 817.201C238.936 817.933 237.374 818.298 235.612 818.298C233.638 818.298 231.905 817.844 230.413 816.935C228.929 816.026 227.771 814.737 226.94 813.067C226.109 811.391 225.694 809.403 225.694 807.102C225.694 805.362 225.935 803.799 226.418 802.414C226.901 801.029 227.58 799.854 228.453 798.888C229.334 797.915 230.367 797.173 231.553 796.661C232.746 796.143 234.05 795.884 235.463 795.884C236.642 795.884 237.739 796.058 238.755 796.406C239.778 796.754 240.687 797.247 241.482 797.886C242.285 798.526 242.949 799.286 243.474 800.166C244 801.04 244.355 802.009 244.54 803.075H241.163ZM257.305 818.33C255.771 818.33 254.432 817.979 253.288 817.276C252.145 816.572 251.257 815.589 250.625 814.325C249.993 813.06 249.677 811.583 249.677 809.893C249.677 808.195 249.993 806.711 250.625 805.44C251.257 804.168 252.145 803.181 253.288 802.478C254.432 801.775 255.771 801.423 257.305 801.423C258.839 801.423 260.178 801.775 261.321 802.478C262.465 803.181 263.352 804.168 263.984 805.44C264.617 806.711 264.933 808.195 264.933 809.893C264.933 811.583 264.617 813.06 263.984 814.325C263.352 815.589 262.465 816.572 261.321 817.276C260.178 817.979 258.839 818.33 257.305 818.33ZM257.315 815.656C258.31 815.656 259.134 815.393 259.787 814.868C260.44 814.342 260.923 813.643 261.236 812.769C261.556 811.896 261.715 810.933 261.715 809.882C261.715 808.838 261.556 807.879 261.236 807.006C260.923 806.125 260.44 805.418 259.787 804.886C259.134 804.353 258.31 804.087 257.315 804.087C256.314 804.087 255.483 804.353 254.823 804.886C254.169 805.418 253.683 806.125 253.363 807.006C253.051 807.879 252.894 808.838 252.894 809.882C252.894 810.933 253.051 811.896 253.363 812.769C253.683 813.643 254.169 814.342 254.823 814.868C255.483 815.393 256.314 815.656 257.315 815.656ZM277.181 818.33C275.647 818.33 274.308 817.979 273.165 817.276C272.021 816.572 271.133 815.589 270.501 814.325C269.869 813.06 269.553 811.583 269.553 809.893C269.553 808.195 269.869 806.711 270.501 805.44C271.133 804.168 272.021 803.181 273.165 802.478C274.308 801.775 275.647 801.423 277.181 801.423C278.715 801.423 280.054 801.775 281.197 802.478C282.341 803.181 283.229 804.168 283.861 805.44C284.493 806.711 284.809 808.195 284.809 809.893C284.809 811.583 284.493 813.06 283.861 814.325C283.229 815.589 282.341 816.572 281.197 817.276C280.054 817.979 278.715 818.33 277.181 818.33ZM277.192 815.656C278.186 815.656 279.01 815.393 279.663 814.868C280.317 814.342 280.8 813.643 281.112 812.769C281.432 811.896 281.591 810.933 281.591 809.882C281.591 808.838 281.432 807.879 281.112 807.006C280.8 806.125 280.317 805.418 279.663 804.886C279.01 804.353 278.186 804.087 277.192 804.087C276.19 804.087 275.359 804.353 274.699 804.886C274.045 805.418 273.559 806.125 273.239 807.006C272.927 807.879 272.77 808.838 272.77 809.882C272.77 810.933 272.927 811.896 273.239 812.769C273.559 813.643 274.045 814.342 274.699 814.868C275.359 815.393 276.19 815.656 277.192 815.656ZM296.29 818.32C294.969 818.32 293.79 817.982 292.753 817.308C291.723 816.626 290.914 815.656 290.324 814.399C289.742 813.135 289.451 811.619 289.451 809.85C289.451 808.082 289.745 806.569 290.335 805.312C290.931 804.055 291.748 803.092 292.785 802.425C293.822 801.757 294.997 801.423 296.311 801.423C297.327 801.423 298.144 801.594 298.762 801.935C299.387 802.268 299.87 802.659 300.211 803.107C300.559 803.554 300.828 803.948 301.02 804.289H301.212V796.182H304.397V818H301.287V815.454H301.02C300.828 815.802 300.551 816.2 300.189 816.647C299.834 817.094 299.344 817.485 298.719 817.819C298.094 818.153 297.284 818.32 296.29 818.32ZM296.993 815.603C297.909 815.603 298.684 815.362 299.316 814.879C299.955 814.388 300.438 813.71 300.765 812.844C301.098 811.977 301.265 810.969 301.265 809.818C301.265 808.682 301.102 807.687 300.775 806.835C300.448 805.983 299.969 805.319 299.337 804.843C298.705 804.367 297.924 804.129 296.993 804.129C296.034 804.129 295.235 804.378 294.596 804.875C293.957 805.372 293.474 806.05 293.147 806.91C292.828 807.769 292.668 808.739 292.668 809.818C292.668 810.912 292.831 811.896 293.158 812.769C293.485 813.643 293.968 814.335 294.607 814.847C295.253 815.351 296.049 815.603 296.993 815.603ZM328.122 801.636V804.193H319.183V801.636H328.122ZM321.58 797.716H324.766V813.195C324.766 813.813 324.858 814.278 325.043 814.591C325.227 814.896 325.465 815.106 325.757 815.219C326.055 815.326 326.378 815.379 326.726 815.379C326.982 815.379 327.205 815.362 327.397 815.326C327.589 815.29 327.738 815.262 327.845 815.241L328.42 817.872C328.235 817.943 327.972 818.014 327.632 818.085C327.291 818.163 326.865 818.206 326.353 818.213C325.515 818.227 324.734 818.078 324.009 817.766C323.285 817.453 322.699 816.97 322.252 816.317C321.804 815.663 321.58 814.843 321.58 813.856V797.716ZM340.162 818.33C338.628 818.33 337.289 817.979 336.146 817.276C335.002 816.572 334.115 815.589 333.483 814.325C332.85 813.06 332.534 811.583 332.534 809.893C332.534 808.195 332.85 806.711 333.483 805.44C334.115 804.168 335.002 803.181 336.146 802.478C337.289 801.775 338.628 801.423 340.162 801.423C341.696 801.423 343.035 801.775 344.179 802.478C345.322 803.181 346.21 804.168 346.842 805.44C347.474 806.711 347.79 808.195 347.79 809.893C347.79 811.583 347.474 813.06 346.842 814.325C346.21 815.589 345.322 816.572 344.179 817.276C343.035 817.979 341.696 818.33 340.162 818.33ZM340.173 815.656C341.167 815.656 341.991 815.393 342.644 814.868C343.298 814.342 343.781 813.643 344.093 812.769C344.413 811.896 344.573 810.933 344.573 809.882C344.573 808.838 344.413 807.879 344.093 807.006C343.781 806.125 343.298 805.418 342.644 804.886C341.991 804.353 341.167 804.087 340.173 804.087C339.171 804.087 338.34 804.353 337.68 804.886C337.027 805.418 336.54 806.125 336.22 807.006C335.908 807.879 335.752 808.838 335.752 809.882C335.752 810.933 335.908 811.896 336.22 812.769C336.54 813.643 337.027 814.342 337.68 814.868C338.34 815.393 339.171 815.656 340.173 815.656ZM377.906 803.075C377.7 802.428 377.423 801.849 377.075 801.338C376.735 800.82 376.326 800.379 375.85 800.017C375.374 799.648 374.831 799.367 374.22 799.175C373.617 798.984 372.953 798.888 372.228 798.888C370.999 798.888 369.891 799.204 368.904 799.836C367.917 800.468 367.136 801.395 366.561 802.616C365.992 803.831 365.708 805.319 365.708 807.08C365.708 808.849 365.996 810.344 366.571 811.565C367.146 812.787 367.935 813.714 368.936 814.346C369.938 814.978 371.078 815.294 372.356 815.294C373.542 815.294 374.575 815.053 375.456 814.57C376.344 814.087 377.029 813.405 377.512 812.524C378.002 811.636 378.247 810.592 378.247 809.392L379.1 809.552H372.857V806.835H381.433V809.317C381.433 811.15 381.042 812.741 380.261 814.09C379.487 815.433 378.414 816.469 377.043 817.201C375.68 817.933 374.117 818.298 372.356 818.298C370.382 818.298 368.649 817.844 367.157 816.935C365.673 816.026 364.515 814.737 363.684 813.067C362.853 811.391 362.438 809.403 362.438 807.102C362.438 805.362 362.679 803.799 363.162 802.414C363.645 801.029 364.323 799.854 365.197 798.888C366.078 797.915 367.111 797.173 368.297 796.661C369.49 796.143 370.793 795.884 372.207 795.884C373.386 795.884 374.483 796.058 375.499 796.406C376.521 796.754 377.431 797.247 378.226 797.886C379.029 798.526 379.693 799.286 380.218 800.166C380.744 801.04 381.099 802.009 381.284 803.075H377.906ZM387.156 818V801.636H390.235V804.236H390.405C390.703 803.355 391.229 802.663 391.982 802.158C392.742 801.647 393.601 801.391 394.56 801.391C394.759 801.391 394.993 801.398 395.263 801.413C395.54 801.427 395.757 801.445 395.913 801.466V804.513C395.785 804.477 395.558 804.438 395.231 804.396C394.904 804.346 394.578 804.321 394.251 804.321C393.498 804.321 392.827 804.481 392.237 804.8C391.655 805.113 391.193 805.55 390.853 806.111C390.512 806.665 390.341 807.297 390.341 808.007V818H387.156ZM406.936 818.33C405.324 818.33 403.935 817.986 402.771 817.297C401.613 816.601 400.718 815.624 400.086 814.367C399.461 813.103 399.148 811.622 399.148 809.925C399.148 808.249 399.461 806.771 400.086 805.493C400.718 804.214 401.599 803.217 402.728 802.499C403.864 801.782 405.192 801.423 406.712 801.423C407.636 801.423 408.531 801.576 409.397 801.881C410.263 802.187 411.041 802.666 411.73 803.32C412.419 803.973 412.962 804.822 413.36 805.866C413.758 806.903 413.957 808.163 413.957 809.648V810.777H400.949V808.391H410.835C410.835 807.553 410.665 806.81 410.324 806.164C409.983 805.511 409.504 804.996 408.886 804.619C408.275 804.243 407.558 804.055 406.734 804.055C405.839 804.055 405.058 804.275 404.39 804.715C403.729 805.148 403.218 805.717 402.856 806.42C402.501 807.116 402.323 807.872 402.323 808.689V810.553C402.323 811.647 402.515 812.577 402.898 813.344C403.289 814.112 403.832 814.697 404.528 815.102C405.224 815.5 406.038 815.699 406.968 815.699C407.572 815.699 408.122 815.614 408.619 815.443C409.116 815.266 409.546 815.003 409.908 814.655C410.271 814.307 410.548 813.877 410.739 813.366L413.754 813.909C413.513 814.797 413.08 815.575 412.455 816.242C411.837 816.903 411.059 817.418 410.121 817.787C409.191 818.149 408.129 818.33 406.936 818.33ZM424.053 818.362C423.016 818.362 422.079 818.17 421.241 817.787C420.402 817.396 419.738 816.832 419.248 816.093C418.765 815.354 418.524 814.449 418.524 813.376C418.524 812.453 418.701 811.693 419.057 811.097C419.412 810.5 419.891 810.028 420.495 809.68C421.098 809.332 421.773 809.069 422.519 808.891C423.265 808.714 424.025 808.579 424.799 808.487C425.779 808.373 426.574 808.281 427.185 808.21C427.796 808.131 428.24 808.007 428.517 807.837C428.794 807.666 428.932 807.389 428.932 807.006V806.931C428.932 806.001 428.669 805.28 428.144 804.768C427.625 804.257 426.851 804.001 425.821 804.001C424.749 804.001 423.904 804.239 423.286 804.715C422.675 805.184 422.253 805.706 422.018 806.281L419.025 805.599C419.38 804.605 419.898 803.803 420.58 803.192C421.269 802.574 422.061 802.126 422.956 801.849C423.851 801.565 424.792 801.423 425.779 801.423C426.432 801.423 427.125 801.501 427.856 801.658C428.595 801.807 429.284 802.084 429.923 802.489C430.569 802.893 431.098 803.472 431.51 804.225C431.922 804.971 432.128 805.94 432.128 807.134V818H429.018V815.763H428.89C428.684 816.175 428.375 816.58 427.963 816.977C427.551 817.375 427.022 817.705 426.375 817.968C425.729 818.231 424.955 818.362 424.053 818.362ZM424.745 815.805C425.626 815.805 426.379 815.631 427.004 815.283C427.636 814.935 428.116 814.481 428.442 813.92C428.776 813.352 428.943 812.744 428.943 812.098V809.989C428.829 810.102 428.609 810.209 428.282 810.308C427.963 810.401 427.597 810.482 427.185 810.553C426.773 810.617 426.372 810.678 425.981 810.734C425.591 810.784 425.264 810.827 425.001 810.862C424.383 810.94 423.819 811.072 423.307 811.256C422.803 811.441 422.398 811.707 422.093 812.055C421.794 812.396 421.645 812.851 421.645 813.419C421.645 814.207 421.937 814.804 422.519 815.209C423.101 815.607 423.844 815.805 424.745 815.805ZM445.81 801.636V804.193H436.871V801.636H445.81ZM439.268 797.716H442.454V813.195C442.454 813.813 442.546 814.278 442.731 814.591C442.915 814.896 443.153 815.106 443.444 815.219C443.743 815.326 444.066 815.379 444.414 815.379C444.67 815.379 444.893 815.362 445.085 815.326C445.277 815.29 445.426 815.262 445.533 815.241L446.108 817.872C445.923 817.943 445.66 818.014 445.319 818.085C444.979 818.163 444.552 818.206 444.041 818.213C443.203 818.227 442.422 818.078 441.697 817.766C440.973 817.453 440.387 816.97 439.939 816.317C439.492 815.663 439.268 814.843 439.268 813.856V797.716Z" fill="white" fill-opacity="0.7"/>
</svg>
