<svg width="483" height="442" viewBox="0 0 483 442" fill="none" xmlns="http://www.w3.org/2000/svg">
<g filter="url(#filter0_d_541_12)">
<mask id="path-1-inside-1_541_12" fill="white">
<path fill-rule="evenodd" clip-rule="evenodd" d="M242.579 0.0228937C241.452 0.00764868 240.323 0 239.192 0C112.613 0 10 95.8111 10 214C10 332.189 112.613 428 239.192 428C303.773 428 362.115 403.06 403.774 362.932L242.579 204.377V0.0228937Z"/>
</mask>
<path fill-rule="evenodd" clip-rule="evenodd" d="M242.579 0.0228937C241.452 0.00764868 240.323 0 239.192 0C112.613 0 10 95.8111 10 214C10 332.189 112.613 428 239.192 428C303.773 428 362.115 403.06 403.774 362.932L242.579 204.377V0.0228937Z" fill="#A5A8AB"/>
<path d="M242.579 0.0228937H246.579V-3.92337L242.633 -3.97674L242.579 0.0228937ZM403.774 362.932L406.549 365.813L409.509 362.962L406.579 360.08L403.774 362.932ZM242.579 204.377H238.579V206.054L239.774 207.229L242.579 204.377ZM239.192 4C240.305 4 241.416 4.00753 242.525 4.02253L242.633 -3.97674C241.488 -3.99223 240.341 -4 239.192 -4V4ZM14 214C14 98.2742 114.559 4 239.192 4V-4C110.666 -4 6 93.348 6 214H14ZM239.192 424C114.559 424 14 329.726 14 214H6C6 334.652 110.666 432 239.192 432V424ZM400.999 360.051C360.084 399.462 302.735 424 239.192 424V432C304.81 432 364.146 406.657 406.549 365.813L400.999 360.051ZM406.579 360.08L245.384 201.526L239.774 207.229L400.969 365.783L406.579 360.08ZM246.579 204.377V0.0228937H238.579V204.377H246.579Z" fill="#D9D9D9" mask="url(#path-1-inside-1_541_12)"/>
</g>
<g filter="url(#filter1_d_541_12)">
<mask id="path-3-inside-2_541_12" fill="white">
<path fill-rule="evenodd" clip-rule="evenodd" d="M255 16V200.134L404.912 343C442.106 308.289 465 260.965 465 208.805C465 103.262 371.267 17.5237 255 16Z"/>
</mask>
<path fill-rule="evenodd" clip-rule="evenodd" d="M255 16V200.134L404.912 343C442.106 308.289 465 260.965 465 208.805C465 103.262 371.267 17.5237 255 16Z" fill="#2C73FD"/>
<path d="M255 200.134H250V202.276L251.551 203.754L255 200.134ZM255 16L255.066 11.0004L250 10.934V16H255ZM404.912 343L401.463 346.62L404.877 349.873L408.324 346.655L404.912 343ZM260 200.134V16H250V200.134H260ZM408.362 339.38L258.449 196.515L251.551 203.754L401.463 346.62L408.362 339.38ZM460 208.805C460 259.445 437.784 305.484 401.501 339.345L408.324 346.655C446.429 311.094 470 262.485 470 208.805H460ZM254.934 20.9996C368.944 22.4937 460 106.452 460 208.805H470C470 100.071 373.59 12.5537 255.066 11.0004L254.934 20.9996Z" fill="#CCCCCC" fill-opacity="0.25" mask="url(#path-3-inside-2_541_12)"/>
</g>
<path d="M83.2727 280H75.0227V256.727H83.3409C85.6818 256.727 87.697 257.193 89.3864 258.125C91.0758 259.049 92.375 260.379 93.2841 262.114C94.2008 263.848 94.6591 265.924 94.6591 268.341C94.6591 270.765 94.2008 272.848 93.2841 274.591C92.375 276.333 91.0682 277.67 89.3636 278.602C87.6667 279.534 85.6364 280 83.2727 280ZM79.9432 275.784H83.0682C84.5227 275.784 85.7462 275.527 86.7386 275.011C87.7386 274.489 88.4886 273.682 88.9886 272.591C89.4962 271.492 89.75 270.076 89.75 268.341C89.75 266.621 89.4962 265.216 88.9886 264.125C88.4886 263.034 87.7424 262.231 86.75 261.716C85.7576 261.201 84.5341 260.943 83.0795 260.943H79.9432V275.784ZM106.808 280.341C105.012 280.341 103.467 279.977 102.171 279.25C100.883 278.515 99.8909 277.477 99.194 276.136C98.497 274.788 98.1485 273.193 98.1485 271.352C98.1485 269.557 98.497 267.981 99.194 266.625C99.8909 265.269 100.872 264.212 102.137 263.455C103.41 262.697 104.902 262.318 106.614 262.318C107.766 262.318 108.838 262.504 109.83 262.875C110.83 263.239 111.702 263.788 112.444 264.523C113.194 265.258 113.777 266.182 114.194 267.295C114.611 268.402 114.819 269.697 114.819 271.182V272.511H100.08V269.511H110.262C110.262 268.814 110.111 268.197 109.808 267.659C109.505 267.121 109.084 266.701 108.546 266.398C108.016 266.087 107.399 265.932 106.694 265.932C105.959 265.932 105.308 266.102 104.739 266.443C104.179 266.777 103.739 267.227 103.421 267.795C103.103 268.356 102.94 268.981 102.933 269.67V272.523C102.933 273.386 103.092 274.133 103.41 274.761C103.736 275.39 104.194 275.875 104.785 276.216C105.376 276.557 106.077 276.727 106.887 276.727C107.425 276.727 107.917 276.652 108.364 276.5C108.811 276.348 109.194 276.121 109.512 275.818C109.83 275.515 110.073 275.144 110.239 274.705L114.717 275C114.489 276.076 114.024 277.015 113.319 277.818C112.622 278.614 111.72 279.235 110.614 279.682C109.516 280.121 108.247 280.341 106.808 280.341ZM134.422 262.545L128.32 280H122.865L116.763 262.545H121.877L125.502 275.034H125.683L129.297 262.545H134.422ZM144.931 280.341C143.136 280.341 141.59 279.977 140.295 279.25C139.007 278.515 138.015 277.477 137.318 276.136C136.621 274.788 136.272 273.193 136.272 271.352C136.272 269.557 136.621 267.981 137.318 266.625C138.015 265.269 138.996 264.212 140.261 263.455C141.534 262.697 143.026 262.318 144.738 262.318C145.89 262.318 146.962 262.504 147.954 262.875C148.954 263.239 149.825 263.788 150.568 264.523C151.318 265.258 151.901 266.182 152.318 267.295C152.734 268.402 152.943 269.697 152.943 271.182V272.511H138.204V269.511H148.386C148.386 268.814 148.234 268.197 147.931 267.659C147.628 267.121 147.208 266.701 146.67 266.398C146.14 266.087 145.522 265.932 144.818 265.932C144.083 265.932 143.431 266.102 142.863 266.443C142.303 266.777 141.863 267.227 141.545 267.795C141.227 268.356 141.064 268.981 141.056 269.67V272.523C141.056 273.386 141.215 274.133 141.534 274.761C141.859 275.39 142.318 275.875 142.909 276.216C143.5 276.557 144.2 276.727 145.011 276.727C145.549 276.727 146.041 276.652 146.488 276.5C146.935 276.348 147.318 276.121 147.636 275.818C147.954 275.515 148.197 275.144 148.363 274.705L152.84 275C152.613 276.076 152.147 277.015 151.443 277.818C150.746 278.614 149.844 279.235 148.738 279.682C147.64 280.121 146.371 280.341 144.931 280.341ZM161.583 256.727V280H156.742V256.727H161.583ZM173.987 280.341C172.222 280.341 170.695 279.966 169.407 279.216C168.127 278.458 167.138 277.405 166.441 276.057C165.745 274.701 165.396 273.129 165.396 271.341C165.396 269.538 165.745 267.962 166.441 266.614C167.138 265.258 168.127 264.205 169.407 263.455C170.695 262.697 172.222 262.318 173.987 262.318C175.752 262.318 177.275 262.697 178.555 263.455C179.843 264.205 180.835 265.258 181.532 266.614C182.229 267.962 182.578 269.538 182.578 271.341C182.578 273.129 182.229 274.701 181.532 276.057C180.835 277.405 179.843 278.458 178.555 279.216C177.275 279.966 175.752 280.341 173.987 280.341ZM174.01 276.591C174.813 276.591 175.483 276.364 176.021 275.909C176.559 275.447 176.964 274.818 177.237 274.023C177.517 273.227 177.657 272.322 177.657 271.307C177.657 270.292 177.517 269.386 177.237 268.591C176.964 267.795 176.559 267.167 176.021 266.705C175.483 266.242 174.813 266.011 174.01 266.011C173.199 266.011 172.517 266.242 171.964 266.705C171.419 267.167 171.006 267.795 170.726 268.591C170.453 269.386 170.316 270.292 170.316 271.307C170.316 272.322 170.453 273.227 170.726 274.023C171.006 274.818 171.419 275.447 171.964 275.909C172.517 276.364 173.199 276.591 174.01 276.591ZM186.366 286.545V262.545H191.138V265.477H191.354C191.566 265.008 191.873 264.53 192.275 264.045C192.684 263.553 193.214 263.144 193.866 262.818C194.525 262.485 195.343 262.318 196.32 262.318C197.593 262.318 198.767 262.652 199.843 263.318C200.919 263.977 201.778 264.973 202.422 266.307C203.066 267.633 203.388 269.295 203.388 271.295C203.388 273.242 203.074 274.886 202.445 276.227C201.824 277.561 200.975 278.572 199.9 279.261C198.831 279.943 197.635 280.284 196.309 280.284C195.369 280.284 194.57 280.129 193.911 279.818C193.26 279.508 192.725 279.117 192.309 278.648C191.892 278.17 191.574 277.689 191.354 277.205H191.206V286.545H186.366ZM191.104 271.273C191.104 272.311 191.248 273.216 191.536 273.989C191.824 274.761 192.241 275.364 192.786 275.795C193.331 276.22 193.994 276.432 194.775 276.432C195.563 276.432 196.229 276.216 196.775 275.784C197.32 275.345 197.733 274.739 198.013 273.966C198.301 273.186 198.445 272.288 198.445 271.273C198.445 270.265 198.305 269.379 198.025 268.614C197.744 267.848 197.331 267.25 196.786 266.818C196.241 266.386 195.57 266.17 194.775 266.17C193.987 266.17 193.32 266.379 192.775 266.795C192.237 267.212 191.824 267.803 191.536 268.568C191.248 269.333 191.104 270.235 191.104 271.273ZM215.21 280.341C213.415 280.341 211.869 279.977 210.574 279.25C209.286 278.515 208.293 277.477 207.596 276.136C206.9 274.788 206.551 273.193 206.551 271.352C206.551 269.557 206.9 267.981 207.596 266.625C208.293 265.269 209.275 264.212 210.54 263.455C211.812 262.697 213.305 262.318 215.017 262.318C216.168 262.318 217.24 262.504 218.233 262.875C219.233 263.239 220.104 263.788 220.846 264.523C221.596 265.258 222.18 266.182 222.596 267.295C223.013 268.402 223.221 269.697 223.221 271.182V272.511H208.483V269.511H218.665C218.665 268.814 218.513 268.197 218.21 267.659C217.907 267.121 217.487 266.701 216.949 266.398C216.418 266.087 215.801 265.932 215.096 265.932C214.362 265.932 213.71 266.102 213.142 266.443C212.581 266.777 212.142 267.227 211.824 267.795C211.506 268.356 211.343 268.981 211.335 269.67V272.523C211.335 273.386 211.494 274.133 211.812 274.761C212.138 275.39 212.596 275.875 213.187 276.216C213.778 276.557 214.479 276.727 215.29 276.727C215.828 276.727 216.32 276.652 216.767 276.5C217.214 276.348 217.596 276.121 217.915 275.818C218.233 275.515 218.475 275.144 218.642 274.705L223.119 275C222.892 276.076 222.426 277.015 221.721 277.818C221.025 278.614 220.123 279.235 219.017 279.682C217.918 280.121 216.65 280.341 215.21 280.341ZM227.021 280V262.545H231.714V265.591H231.896C232.214 264.508 232.748 263.689 233.498 263.136C234.248 262.576 235.111 262.295 236.089 262.295C236.331 262.295 236.593 262.311 236.873 262.341C237.153 262.371 237.399 262.413 237.611 262.466V266.761C237.384 266.693 237.07 266.633 236.668 266.58C236.267 266.527 235.899 266.5 235.566 266.5C234.854 266.5 234.218 266.655 233.657 266.966C233.104 267.269 232.665 267.693 232.339 268.239C232.021 268.784 231.861 269.413 231.861 270.125V280H227.021Z" fill="black"/>
<path d="M294.273 169H286.023V145.727H294.341C296.682 145.727 298.697 146.193 300.386 147.125C302.076 148.049 303.375 149.379 304.284 151.114C305.201 152.848 305.659 154.924 305.659 157.341C305.659 159.765 305.201 161.848 304.284 163.591C303.375 165.333 302.068 166.67 300.364 167.602C298.667 168.534 296.636 169 294.273 169ZM290.943 164.784H294.068C295.523 164.784 296.746 164.527 297.739 164.011C298.739 163.489 299.489 162.682 299.989 161.591C300.496 160.492 300.75 159.076 300.75 157.341C300.75 155.621 300.496 154.216 299.989 153.125C299.489 152.034 298.742 151.231 297.75 150.716C296.758 150.201 295.534 149.943 294.08 149.943H290.943V164.784ZM317.808 169.341C316.012 169.341 314.467 168.977 313.171 168.25C311.883 167.515 310.891 166.477 310.194 165.136C309.497 163.788 309.149 162.193 309.149 160.352C309.149 158.557 309.497 156.981 310.194 155.625C310.891 154.269 311.872 153.212 313.137 152.455C314.41 151.697 315.902 151.318 317.614 151.318C318.766 151.318 319.838 151.504 320.83 151.875C321.83 152.239 322.702 152.788 323.444 153.523C324.194 154.258 324.777 155.182 325.194 156.295C325.611 157.402 325.819 158.697 325.819 160.182V161.511H311.08V158.511H321.262C321.262 157.814 321.111 157.197 320.808 156.659C320.505 156.121 320.084 155.701 319.546 155.398C319.016 155.087 318.399 154.932 317.694 154.932C316.959 154.932 316.308 155.102 315.739 155.443C315.179 155.777 314.739 156.227 314.421 156.795C314.103 157.356 313.94 157.981 313.933 158.67V161.523C313.933 162.386 314.092 163.133 314.41 163.761C314.736 164.39 315.194 164.875 315.785 165.216C316.376 165.557 317.077 165.727 317.887 165.727C318.425 165.727 318.917 165.652 319.364 165.5C319.811 165.348 320.194 165.121 320.512 164.818C320.83 164.515 321.073 164.144 321.239 163.705L325.717 164C325.489 165.076 325.024 166.015 324.319 166.818C323.622 167.614 322.72 168.235 321.614 168.682C320.516 169.121 319.247 169.341 317.808 169.341ZM344.141 156.523L339.709 156.795C339.633 156.417 339.47 156.076 339.22 155.773C338.97 155.462 338.641 155.216 338.232 155.034C337.83 154.845 337.349 154.75 336.789 154.75C336.039 154.75 335.406 154.909 334.891 155.227C334.376 155.538 334.118 155.955 334.118 156.477C334.118 156.894 334.285 157.246 334.618 157.534C334.951 157.822 335.523 158.053 336.334 158.227L339.493 158.864C341.19 159.212 342.455 159.773 343.289 160.545C344.122 161.318 344.539 162.333 344.539 163.591C344.539 164.735 344.201 165.739 343.527 166.602C342.86 167.466 341.944 168.14 340.777 168.625C339.618 169.102 338.281 169.341 336.766 169.341C334.455 169.341 332.614 168.86 331.243 167.898C329.879 166.928 329.08 165.61 328.845 163.943L333.607 163.693C333.751 164.398 334.099 164.936 334.652 165.307C335.205 165.67 335.914 165.852 336.777 165.852C337.626 165.852 338.307 165.689 338.823 165.364C339.345 165.03 339.61 164.602 339.618 164.08C339.61 163.64 339.425 163.28 339.061 163C338.698 162.712 338.137 162.492 337.379 162.341L334.357 161.739C332.652 161.398 331.383 160.807 330.55 159.966C329.724 159.125 329.311 158.053 329.311 156.75C329.311 155.629 329.614 154.663 330.22 153.852C330.834 153.042 331.694 152.417 332.8 151.977C333.914 151.538 335.217 151.318 336.709 151.318C338.914 151.318 340.648 151.784 341.914 152.716C343.186 153.648 343.929 154.917 344.141 156.523ZM348.227 169V151.545H353.068V169H348.227ZM350.659 149.295C349.939 149.295 349.322 149.057 348.806 148.58C348.299 148.095 348.045 147.515 348.045 146.841C348.045 146.174 348.299 145.602 348.806 145.125C349.322 144.64 349.939 144.398 350.659 144.398C351.378 144.398 351.992 144.64 352.5 145.125C353.015 145.602 353.272 146.174 353.272 146.841C353.272 147.515 353.015 148.095 352.5 148.58C351.992 149.057 351.378 149.295 350.659 149.295ZM365.449 175.909C363.881 175.909 362.536 175.693 361.415 175.261C360.301 174.837 359.415 174.258 358.756 173.523C358.097 172.788 357.669 171.962 357.472 171.045L361.949 170.443C362.086 170.792 362.301 171.117 362.597 171.42C362.892 171.723 363.283 171.966 363.767 172.148C364.26 172.337 364.858 172.432 365.563 172.432C366.616 172.432 367.483 172.174 368.165 171.659C368.855 171.152 369.199 170.299 369.199 169.102V165.909H368.995C368.783 166.394 368.464 166.852 368.04 167.284C367.616 167.716 367.07 168.068 366.404 168.341C365.737 168.614 364.942 168.75 364.017 168.75C362.707 168.75 361.514 168.447 360.438 167.841C359.37 167.227 358.517 166.292 357.881 165.034C357.252 163.769 356.938 162.17 356.938 160.239C356.938 158.261 357.26 156.61 357.904 155.284C358.548 153.958 359.404 152.966 360.472 152.307C361.548 151.648 362.726 151.318 364.006 151.318C364.983 151.318 365.801 151.485 366.461 151.818C367.12 152.144 367.65 152.553 368.051 153.045C368.461 153.53 368.775 154.008 368.995 154.477H369.176V151.545H373.983V169.17C373.983 170.655 373.62 171.898 372.892 172.898C372.165 173.898 371.158 174.648 369.87 175.148C368.589 175.655 367.116 175.909 365.449 175.909ZM365.551 165.114C366.332 165.114 366.991 164.92 367.529 164.534C368.074 164.14 368.491 163.58 368.779 162.852C369.074 162.117 369.222 161.239 369.222 160.216C369.222 159.193 369.078 158.307 368.79 157.557C368.502 156.799 368.086 156.212 367.54 155.795C366.995 155.379 366.332 155.17 365.551 155.17C364.756 155.17 364.086 155.386 363.54 155.818C362.995 156.242 362.582 156.833 362.301 157.591C362.021 158.348 361.881 159.223 361.881 160.216C361.881 161.223 362.021 162.095 362.301 162.83C362.589 163.557 363.002 164.121 363.54 164.523C364.086 164.917 364.756 165.114 365.551 165.114ZM383.316 158.909V169H378.476V151.545H383.089V154.625H383.294C383.68 153.61 384.328 152.807 385.237 152.216C386.146 151.617 387.248 151.318 388.544 151.318C389.756 151.318 390.813 151.583 391.714 152.114C392.616 152.644 393.316 153.402 393.816 154.386C394.316 155.364 394.566 156.53 394.566 157.886V169H389.726V158.75C389.733 157.682 389.46 156.848 388.907 156.25C388.354 155.644 387.593 155.341 386.623 155.341C385.972 155.341 385.396 155.481 384.896 155.761C384.404 156.042 384.017 156.451 383.737 156.989C383.464 157.519 383.324 158.159 383.316 158.909ZM406.976 169.341C405.181 169.341 403.635 168.977 402.34 168.25C401.052 167.515 400.06 166.477 399.363 165.136C398.666 163.788 398.317 162.193 398.317 160.352C398.317 158.557 398.666 156.981 399.363 155.625C400.06 154.269 401.041 153.212 402.306 152.455C403.579 151.697 405.071 151.318 406.783 151.318C407.935 151.318 409.007 151.504 409.999 151.875C410.999 152.239 411.87 152.788 412.613 153.523C413.363 154.258 413.946 155.182 414.363 156.295C414.779 157.402 414.988 158.697 414.988 160.182V161.511H400.249V158.511H410.431C410.431 157.814 410.279 157.197 409.976 156.659C409.673 156.121 409.253 155.701 408.715 155.398C408.185 155.087 407.567 154.932 406.863 154.932C406.128 154.932 405.476 155.102 404.908 155.443C404.348 155.777 403.908 156.227 403.59 156.795C403.272 157.356 403.109 157.981 403.101 158.67V161.523C403.101 162.386 403.26 163.133 403.579 163.761C403.904 164.39 404.363 164.875 404.954 165.216C405.545 165.557 406.245 165.727 407.056 165.727C407.594 165.727 408.086 165.652 408.533 165.5C408.98 165.348 409.363 165.121 409.681 164.818C409.999 164.515 410.242 164.144 410.408 163.705L414.885 164C414.658 165.076 414.192 166.015 413.488 166.818C412.791 167.614 411.889 168.235 410.783 168.682C409.685 169.121 408.416 169.341 406.976 169.341ZM418.787 169V151.545H423.48V154.591H423.662C423.98 153.508 424.514 152.689 425.264 152.136C426.014 151.576 426.878 151.295 427.855 151.295C428.097 151.295 428.359 151.311 428.639 151.341C428.919 151.371 429.166 151.413 429.378 151.466V155.761C429.15 155.693 428.836 155.633 428.435 155.58C428.033 155.527 427.666 155.5 427.332 155.5C426.62 155.5 425.984 155.655 425.423 155.966C424.87 156.269 424.431 156.693 424.105 157.239C423.787 157.784 423.628 158.413 423.628 159.125V169H418.787Z" fill="white"/>
<defs>
<filter id="filter0_d_541_12" x="0" y="0" width="403.774" height="442" filterUnits="userSpaceOnUse" color-interpolation-filters="sRGB">
<feFlood flood-opacity="0" result="BackgroundImageFix"/>
<feColorMatrix in="SourceAlpha" type="matrix" values="0 0 0 0 0 0 0 0 0 0 0 0 0 0 0 0 0 0 127 0" result="hardAlpha"/>
<feOffset dx="-5" dy="9"/>
<feGaussianBlur stdDeviation="2.5"/>
<feComposite in2="hardAlpha" operator="out"/>
<feColorMatrix type="matrix" values="0 0 0 0 0.648472 0 0 0 0 0.658636 0 0 0 0 0.670833 0 0 0 0.25 0"/>
<feBlend mode="normal" in2="BackgroundImageFix" result="effect1_dropShadow_541_12"/>
<feBlend mode="normal" in="SourceGraphic" in2="effect1_dropShadow_541_12" result="shape"/>
</filter>
<filter id="filter1_d_541_12" x="253" y="1" width="230" height="347" filterUnits="userSpaceOnUse" color-interpolation-filters="sRGB">
<feFlood flood-opacity="0" result="BackgroundImageFix"/>
<feColorMatrix in="SourceAlpha" type="matrix" values="0 0 0 0 0 0 0 0 0 0 0 0 0 0 0 0 0 0 127 0" result="hardAlpha"/>
<feOffset dx="8" dy="-5"/>
<feGaussianBlur stdDeviation="5"/>
<feComposite in2="hardAlpha" operator="out"/>
<feColorMatrix type="matrix" values="0 0 0 0 0.8 0 0 0 0 0.8 0 0 0 0 0.8 0 0 0 0.25 0"/>
<feBlend mode="normal" in2="BackgroundImageFix" result="effect1_dropShadow_541_12"/>
<feBlend mode="normal" in="SourceGraphic" in2="effect1_dropShadow_541_12" result="shape"/>
</filter>
</defs>
</svg>
